<?xml version="1.0" standalone="no"?>
<!DOCTYPE svg PUBLIC "-//W3C//DTD SVG 1.1//EN" "http://www.w3.org/Graphics/SVG/1.1/DTD/svg11.dtd" >
<svg xmlns="http://www.w3.org/2000/svg" xmlns:xlink="http://www.w3.org/1999/xlink" version="1.1">
<metadata></metadata>
<defs>
<font id="fbbitalic" horiz-adv-x="512" >
<font-face units-per-em="1000" ascent="721" descent="-279" />
<missing-glyph horiz-adv-x="280" />
<glyph unicode="&#xfb01;" horiz-adv-x="523" d="M-163 -237q19 0 50.5 -21t49.5 -21q46 0 80 77q25 71 46 172l87 428v4q0 11 -18 11h-44l4 19q73 1 73 21q0 1 10 54q18 84 35 125q31 72 100 119t148 52q25 2 50 -9.5t25 -33.5q0 -18 -12 -26.5t-28 -8.5q-9 0 -27 18t-39 18q-97 0 -140 -69q-23 -68 -32 -113 q-5 -24 -10 -49t-8.5 -41t-5.5 -33q0 -17 16 -17h209l17 2l17 7l-85 -402q0 -12 12 -12q17 0 69 52l8 8l9 -10q-16 -31 -92 -82q-23 -15 -40 -15q-15 0 -26.5 11t-11.5 25v15q0 8 10 50q36 160 71 325h-181q-11 0 -15 -26l-89 -417q-18 -86 -67.5 -162t-113.5 -105 q-33 -15 -59 -15q-38 0 -58 14q-19 15 -19 29q0 32 25 32z" />
<glyph unicode="&#xfb02;" horiz-adv-x="539" d="M417 439q55 251 55 263q0 9 -10 22q-11 16 -36 31t-46 15q-40 0 -59 -17q-18 -17 -33 -51q-21 -62 -33 -123q-5 -24 -10 -49t-8.5 -41t-5.5 -33q0 -17 16 -17h170zM428 803q42 0 61 -32q16 9 31.5 17.5t21.5 11.5l6 3q12 0 12 -12q0 -13 -15 -81q-87 -393 -122 -566 q-4 -18 -7 -34t-7 -33.5t-6 -29.5v-2q0 -11 12 -10q19 0 69 51l8 8l9 -9q-10 -19 -58 -58q-49 -40 -76 -40q-14 0 -25 11t-11 25t1 19l80 371h-179q-10 0 -15 -26l-89 -417q-18 -86 -67.5 -162t-113.5 -105q-33 -15 -59 -15q-39 0 -58 15q-19 13 -19 28q0 32 25 32 q19 0 50.5 -21t49.5 -21q46 0 80 77q30 88 46 172l87 428v4q0 11 -18 11h-44l4 19q69 2 73 21q0 1 10 54q18 84 35 125q68 171 218 171z" />
<glyph unicode="&#xfb03;" horiz-adv-x="781" d="M231 456q0 -17 16 -17h158q15 0 17 13l3 14q2 8 5.5 27.5t5.5 27.5l9 41q2 10 8.5 41.5t9.5 43.5t-10 27q-13 17 -39 32t-44 15q-43 0 -60 -16q-18 -17 -32 -52q-16 -43 -35 -132l-8 -41q-4 -17 -4 -24zM-163 -237q19 0 50.5 -21t49.5 -21q46 0 80 77q25 71 46 172 l87 428v4q0 11 -18 11h-44l4 19q70 2 73 21l8 45q15 84 58 150t107 93q30 13 57 13q100 0 106 -54l10 13q11 16 20.5 26t22 20.5t19.5 17.5q42 28 141 26q33 -1 59.5 -13t26.5 -30q0 -16 -13 -25.5t-36 -9.5q-13 0 -39.5 27t-44.5 27q-90 0 -121 -77q-20 -57 -32 -118 l-13 -63q0 -1 -2 -13q-3 -13 -5 -24.5t-3.5 -19t-1.5 -8.5q0 -17 15 -17h208l18 2l18 7l-85 -401v-2q0 -11 12 -11q17 0 69 52q6 6 7 8l10 -10q-11 -20 -59 -58q-49 -40 -75 -40q-14 0 -25.5 11.5t-11.5 24.5q0 7 2 19l79 372h-180q-11 0 -15 -26l-89 -417 q-18 -86 -67.5 -162t-113.5 -105q-33 -15 -60 -15q-38 0 -58 15q-18 13 -18 28q0 32 25 32q19 0 50.5 -21t49.5 -21q48 0 79 77q30 87 47 172l87 428v4q0 11 -18 11h-157q-11 0 -15 -26l-89 -417q-18 -86 -67.5 -162t-113.5 -105q-33 -15 -59 -15q-39 0 -58 15 q-19 13 -19 28q0 32 25 32z" />
<glyph unicode="&#xfb04;" horiz-adv-x="798" d="M231 456q0 -17 16 -17h159q6 2 9.5 3.5t5 4t2 4.5t1 6.5t1.5 8.5q26 122 36 164q3 15 3 22q0 18 -35 44q-34 25 -59 25q-41 0 -60 -17t-32 -51q-17 -48 -37 -145q-10 -41 -10 -52zM675 439q55 251 55 263q0 9 -10 22q-11 16 -35.5 31t-45.5 15q-40 0 -59 -17 q-19 -16 -34 -51q-21 -62 -33 -123q-3 -16 -6.5 -33.5t-5.5 -26t-2 -11.5q-9 -43 -9 -52q0 -17 15 -17h170zM687 803q41 0 60 -32q59 32 60 32q11 0 11 -12t-15 -82q-81 -366 -133 -619q-2 -11 -5 -23.5t-4 -19.5v-2q0 -11 12 -10q19 0 69 51l8 8l9 -9q-10 -19 -58 -58 q-49 -40 -76 -40q-14 0 -25 11t-11 25t1 19l80 371h-178q-11 0 -16 -26l-88 -417q-20 -91 -75 -173q-45 -66 -106 -94q-33 -15 -60 -15q-39 0 -58 14q-19 15 -19 29q0 32 26 32q19 0 50.5 -21t49.5 -21q48 0 79 77q30 88 46 172l87 428q0 2 1 4q0 10 -15 11h-161 q-10 0 -15 -26l-89 -417q-18 -86 -67.5 -162t-113.5 -105q-33 -15 -59 -15q-38 0 -58 14q-19 15 -19 29q0 32 25 32q19 0 50.5 -21t49.5 -21q46 0 80 77q30 88 46 172l87 428v4q0 11 -18 11h-44l4 19q69 2 73 21q15 101 65 191q38 66 102 94q32 16 61 16q102 0 108 -54 q67 103 184 103h2z" />
<glyph horiz-adv-x="0" />
<glyph unicode="&#xd;" horiz-adv-x="500" />
<glyph unicode=" "  horiz-adv-x="280" />
<glyph unicode="&#x09;" horiz-adv-x="280" />
<glyph unicode="&#xa0;" horiz-adv-x="280" />
<glyph unicode="!" horiz-adv-x="308" d="M199 52q-8 -35 -20 -50t-41 -15q-31 0 -31 55q0 20 17.5 37t37.5 17q37 0 37 -44zM244 693q1 14 14 16l53 -2q18 -1 18 -7q0 -7 -1 -8l-135 -507h-28z" />
<glyph unicode="&#x22;" horiz-adv-x="398" d="M184 709q15 0 26 -8t11 -21q0 -9 -2 -13l-80 -249h-29l23 241q2 23 14 34q19 16 37 16zM362 709q15 0 25.5 -8.5t10.5 -20.5q0 -11 -1 -13l-80 -249h-29l23 241q2 23 14 34q19 16 37 16z" />
<glyph unicode="#" horiz-adv-x="670" d="M167 520h133l49 231h62l-49 -231h123l49 231h62l-49 -231h133l-14 -59h-132l-35 -171h135l-14 -59h-134l-52 -248h-65l53 248h-121l-52 -248h-65l53 248h-132l15 59h130l37 171h-136zM314 290h121l36 171h-122z" />
<glyph unicode="$" d="M261 601q-31 -4 -55 -26.5t-24 -52.5q0 -28 10 -44q7 -13 33 -47l22 -25q3 -3 9 -9.5t9 -10.5l45 212q-16 2 -21 3h-28zM263 11q40 6 74.5 36.5t34.5 68.5q0 58 -61 119l-23 23l-3 3t-6.5 5.5t-8.5 7.5l-55 -263q12 -2 20 -2zM24 139q0 20 10 32t27 12q32 0 38 -51 q7 -61 44 -90l24 -15q3 -2 9.5 -5t10.5 -4l59 278q-9 7 -19 17l-22 21q-88 86 -88 148q0 63 48 102t113 39q20 0 36 -4l18 86h30l-20 -92q147 -43 147 -126q0 -13 -9.5 -22t-23.5 -9q-12 0 -23 12q-15 20 -29 52q-13 34 -24 43l-24 20q-18 7 -19 8l-48 -229l8 -8l6 -6t3 -2 l24 -21q2 -2 18 -16q34 -28 63.5 -72.5t29.5 -86.5q0 -76 -54.5 -118t-137.5 -42q-25 0 -38 2l-21 -95h-29l22 100q-112 24 -150 107q-9 20 -9 35z" />
<glyph unicode="%" horiz-adv-x="852" d="M833 731h63l-687 -758h-63zM673 -12q-47 0 -69 44t-22 105q0 83 58 172q57 90 124 90q50 0 73.5 -39.5t23.5 -100.5q0 -90 -55 -178q-36 -57 -84 -81q-24 -12 -49 -12zM819 296q0 46 -9 66t-39 20q-51 0 -87 -55q-30 -46 -47 -118q-16 -68 -16 -122q0 -82 59 -82h1 q44 0 78 55q60 96 60 236zM219 262q-47 0 -69 44t-22 105q0 83 58 172q57 90 124 90q50 0 73.5 -39.5t23.5 -100.5q0 -90 -55 -178q-36 -57 -84 -81q-24 -12 -49 -12zM365 570q0 46 -9 66t-39 20q-51 0 -87 -55q-30 -46 -47 -118q-16 -68 -16 -122q0 -82 59 -82h1 q44 0 78 55q60 96 60 236z" />
<glyph unicode="&#x26;" horiz-adv-x="755" d="M360 684q-74 0 -119 -52.5t-45 -130.5q0 -37 17 -54t51 -19q5 0 15.5 -0.5t17.5 -1t15 -2.5t12 -6t4 -11q0 -22 -49 -22q-68 0 -101.5 -15.5t-54.5 -57.5q-19 -38 -19 -87q0 -89 60 -144q62 -57 145 -57q85 0 170 51q57 34 82 82q12 23 12 49q0 54 -30 82t-84 28 q-48 0 -73 -17q-9 -6 -9 -15q0 -11 11 -25q12 -14 12 -23q0 -10 -7 -18.5t-17 -8.5q-41 0 -41 53q0 48 60 80q49 28 105 28l125 -6q72 0 72 29q0 6 -7.5 18t-7.5 19q0 9 9.5 17t18.5 8q16 0 24.5 -13t8.5 -32q0 -50 -52.5 -73t-118.5 -23q-10 0 -10 -6q0 -3 4 -7 q32 -46 32 -92q0 -59 -49 -114q-37 -41 -104 -68.5t-136 -27.5q-104 0 -190 43q-65 34 -95 94q-14 30 -14 63q0 71 37.5 122.5t96.5 71.5q16 5 27 6q14 4 15 8q0 6 -15 15q-3 1 -13 11q-53 50 -53 102q0 85 91 133q77 41 164 41q62 0 116 -22q71 -30 71 -85 q0 -14 -9.5 -25.5t-23.5 -11.5q-22 0 -32.5 14t-17.5 41q-5 23 -15 34t-33 21q-20 9 -56 9z" />
<glyph unicode="'" horiz-adv-x="220" d="M184 709q15 0 26 -8t11 -21q0 -9 -2 -13l-80 -249h-29l23 241q2 23 14 34q19 16 37 16z" />
<glyph unicode="(" horiz-adv-x="332" d="M226 -222q0 -6 -10.5 -20t-16.5 -14t-9 5q-93 185 -93 373q0 192 87 379q83 186 239 340q5 5 8 5q5 0 10.5 -11t5.5 -17q0 -4 -5 -11q-190 -227 -252 -507q-21 -93 -21 -186q0 -204 56 -331q1 -1 1 -5z" />
<glyph unicode=")" horiz-adv-x="329" d="M-25 -256q-5 0 -11 11t-6 17q0 3 6 11q277 349 277 695q0 195 -60 329q-1 1 -1 5q0 14 21 30q6 4 7 4q3 0 6 -5q98 -158 98 -361q0 -206 -86 -394q-88 -188 -243 -337q-5 -5 -8 -5z" />
<glyph unicode="*" horiz-adv-x="391" d="M421 643l4 -21l-119 -39l35 -119l-19 -9l-72 101l-104 -70l-15 14l76 101l-100 76l9 20l119 -40l41 118l22 -3l-1 -125z" />
<glyph unicode="+" horiz-adv-x="567" d="M129 336h183v190h63v-190h180v-62h-180v-188h-63v188h-183v62z" />
<glyph unicode="," horiz-adv-x="184" d="M65 49q0 19 12.5 34t27.5 15t29 -10.5t19 -23.5q7 -17 7 -42q0 -21 -11 -56q-35 -99 -141 -151q-4 -2 -5 -2q-13 0 -13 16q0 7 14 16q40 24 66 52q24 25 24 66q0 17 -14 45q-15 27 -15 41z" />
<glyph unicode="-" horiz-adv-x="452" d="M420 283l-15 -75h-344l16 75h343z" />
<glyph unicode="." horiz-adv-x="174" d="M59 36q0 20 14 40.5t31 20.5q21 0 33.5 -12t12.5 -33q0 -22 -14.5 -43.5t-33.5 -21.5q-25 0 -34 17t-9 32z" />
<glyph unicode="/" horiz-adv-x="497" d="M438 709h64l-351 -722h-63z" />
<glyph unicode="0" d="M380 673q77 0 113.5 -66t36.5 -164q0 -101 -40 -205q-66 -171 -179 -231q-38 -20 -76 -20h-4q-50 0 -83.5 37t-47 89.5t-13.5 114.5q0 103 45 205t107 169q68 71 141 71zM149 153q0 -137 95 -137h1q100 0 166 185q53 151 53 306q0 72 -10 93q-10 23 -27 34t-47 11 q-58 0 -104 -55q-40 -45 -71 -131q-56 -153 -56 -306z" />
<glyph unicode="1" d="M207 502q-2 0 -4.5 5.5t-2.5 7.5l11 8q37 22 99.5 70t95.5 80h28q4 0 5.5 -0.5t1.5 -2v-3.5v-3l-122 -585q-5 -27 -5 -35q0 -24 97 -24q3 0 3 -3l-3 -13q0 -4 -4 -4h-294q-3 0 -4 3l3 13q0 3 19 4.5t42 2.5t25 1q36 3 42 20q3 8 6 23l108 520q0 1 -2.5 -1t-9.5 -7 q-69 -48 -132 -76z" />
<glyph unicode="2" d="M370 673q76 0 119 -40.5t43 -115.5q0 -73 -65 -146q-44 -50 -176 -145q-51 -37 -119 -96q-72 -60 -73 -64h275q36 0 52 16q14 15 37 66h19l-48 -132q-5 -12 -15 -16h-406q-2 0 -2 7q0 25 106 110l90 74q115 93 163 148q72 83 72 151q0 48 -31 86t-74 38t-93 -24 q-29 -14 -55.5 -43t-41.5 -64q-6 -15 -21 -15q-8 0 -8 4q1 10 28 59q25 47 52 69q86 73 172 73z" />
<glyph unicode="3" d="M426 241q0 113 -93 113q-22 0 -42 -10l-26 -13q-5 -3 -6 -3q-7 0 -7 8q0 9 31 27q69 47 95 74q55 55 57 107q0 31 -24 53.5t-57 22.5q-86 0 -165 -101q-5 -1 -11.5 1t-6.5 6q25 50 90 98.5t125 48.5q56 0 91.5 -22.5t35.5 -67.5q0 -70 -83 -138q-27 -22 -60 -38 q63 0 101.5 -35t38.5 -94q0 -75 -52 -147q-41 -55 -111.5 -99.5t-139.5 -44.5q-89 0 -133 27q-29 20 -29 50q0 14 12 23.5t27 9.5q18 0 41 -21q1 -1 10.5 -10t12.5 -12t12 -10.5t15.5 -10.5t15.5 -8t19 -6.5t20 -1.5q58 0 102 39q35 30 64.5 83.5t29.5 101.5z" />
<glyph unicode="4" d="M486 673h3h6.5t5 -0.5t3.5 -2t1 -4.5q0 -5 -10 -54q-5 -22 -21 -100t-30 -144q-24 -116 -24 -118q0 -3 9 -3h81q14 0 14 -6l-7 -36q-3 -12 -13 -12h-88q-6 0 -7 -1.5t-3 -7.5l-40 -191q-2 -11 -10 -11h-53q-8 0 -8 7q41 193 41 197q0 7 -13 7h-5h-243q-10 0 -10 5 q0 9 5 16l397 448q11 11 19 11zM141 261l-3 -5q-4 -4 -4 -6q0 -3 14 -3h190q9 0 13 10q38 187 40 194q9 47 14 70q3 13 3 16q0 9 -9 9q-5 0 -16 -10z" />
<glyph unicode="5" d="M46 48q4 15 17 26.5t29 11.5q6 0 11.5 -2t10 -4t10.5 -7t8.5 -7.5t8.5 -9t7 -7.5q13 -14 18 -18.5t18.5 -11.5t29.5 -7q52 0 101 41q39 32 65 87q22 57 22 88q0 54 -21.5 82t-66.5 41q-21 6 -51 6q-44 0 -99 -33q-14 -8 -17 -8t-3 4q0 3 84 333h249q21 0 34 17q1 2 2 3 h20l-29 -82h-256q-10 0 -11 -4l-46 -181q0 -3 -1 -6q17 14 56 20q38 7 65 7q80 0 124 -50t44 -136q0 -77 -49 -134t-119 -89q-73 -31 -134 -31q-63 0 -104 23q-27 15 -27 38z" />
<glyph unicode="6" d="M573 672q8 0 8 -5q0 -9 -41 -28l-33 -16q-39 -20 -101 -62q-122 -85 -135 -138q3 0 9 2q32 14 66 14q70 0 122 -50q48 -49 48 -123q0 -97 -60 -170t-144 -100q-33 -10 -72 -10q-77 0 -120 55q-42 55 -42 126q0 124 60 216q50 77 153 147q76 51 207 116q54 26 75 26z M433 265q0 145 -109 145q-54 0 -95 -44q-73 -81 -73 -220q0 -93 52 -123q20 -11 50 -11q59 0 99 47q37 40 56 101q20 63 20 105z" />
<glyph unicode="7" d="M583 660q11 0 10 -10q0 -11 -16 -49l-258 -607h-54l2 11l238 569q0 7 -8 7h-281q-20 0 -34 -24l-42 -75q-4 -9 -13 -9q-8 1 -8 3q0 3 2 9l6 15q18 45 29 78l28 72q6 10 10 10h389z" />
<glyph unicode="8" d="M387 673q57 0 95.5 -33t38.5 -87q0 -55 -52 -114q-53 -60 -99 -78q42 -42 58 -66q31 -46 31 -100q0 -78 -63 -141q-64 -66 -146 -67q-104 0 -138 90q-11 30 -11 56q0 92 95 155q63 40 63 46q0 4 -7 12q-27 31 -44 64q-18 32 -18 71q0 80 58 136q61 56 139 56zM307 26 q82 46 82 124q0 25 -18 67q-19 41 -45 69q-27 30 -50 30q-10 0 -20 -10q-10 -11 -19 -18q-39 -34 -59 -75t-20 -104q0 -66 56 -92q19 -8 34 -8q28 0 59 17zM465 560q0 93 -85 93q-48 0 -85 -39t-37 -89t52 -105q31 -34 38 -36q6 -2 12 -2q8 0 25 14q32 26 56 71.5t24 92.5z " />
<glyph unicode="9" d="M353 673q85 0 136.5 -54.5t51.5 -140.5q0 -60 -22.5 -120t-59 -109.5t-84 -93.5t-95.5 -75.5t-96 -53.5q-89 -40 -162 -40q-3 0 -3 4q0 10 17 16q40 15 111 51q189 101 210 182q0 2 -3 2q-9 -2 -26 -6t-27.5 -6.5t-26.5 -4.5t-32 -2q-67 0 -108 48.5t-41 118.5 q0 75 37.5 138.5t93.5 103.5q62 42 129 42zM353 647q-84 0 -129 -77.5t-45 -182.5q0 -92 61 -125q21 -12 52 -12q62 0 104 46q60 68 60 221q0 130 -101 130h-2z" />
<glyph unicode=":" horiz-adv-x="297" d="M88 36q0 20 14 40.5t31 20.5q19 0 32.5 -10.5t13.5 -29.5v-5q0 -22 -14.5 -43.5t-32.5 -21.5q-24 0 -35 17q-9 17 -9 32zM165 392q0 20 14 41t31 21q20 0 33 -11t13 -30v-5q0 -22 -14.5 -43.5t-32.5 -21.5q-24 0 -35 17q-9 17 -9 32z" />
<glyph unicode=";" horiz-adv-x="289" d="M157 392q0 21 14 41.5t31 20.5q46 0 46 -46q0 -21 -15 -43t-33 -22q-25 0 -34 17t-9 32zM120 98q26 0 43 -20.5t17 -49.5q0 -69 -44.5 -125.5t-107.5 -87.5q-4 -2 -5 -2q-13 0 -13 16q0 7 13 16q40 24 66 52q24 25 24 66q0 18 -15 45q-14 28 -14 41q0 15 11.5 32t24.5 17 z" />
<glyph unicode="&#x3c;" horiz-adv-x="479" d="M217 306l248 -148v-75l-343 204v35l343 200v-72z" />
<glyph unicode="=" horiz-adv-x="566" d="M554 419v-62h-425v62h425zM554 253v-62h-425v62h425z" />
<glyph unicode="&#x3e;" horiz-adv-x="478" d="M122 450v72l342 -202v-34l-342 -203v75l247 148z" />
<glyph unicode="?" horiz-adv-x="423" d="M282 621q-8 0 -36.5 -9.5t-35.5 -9.5q-21 0 -21 36q0 34 24 45t73 11q54 0 97 -49q41 -47 41 -104q0 -76 -26.5 -116t-83.5 -73q-41 -24 -68 -43q-36 -25 -55 -107q-6 -26 -8 -32h-19q0 134 38 184q30 41 89 74q60 32 77 56q18 24 18 50q0 43 -32 66q-32 21 -72 21z M194 52q-8 -35 -19.5 -50t-40.5 -15q-31 0 -31 55q0 20 17 37t37 17q37 0 37 -44z" />
<glyph unicode="@" horiz-adv-x="916" d="M611 112q0 -28 16.5 -44.5t44.5 -16.5q53 0 102 49q41 40 71.5 109t30.5 137q0 131 -86 223q-86 91 -243 96q-120 -3 -211.5 -67t-142.5 -162q-54 -102 -54 -218q0 -175 117 -287q52 -49 125 -80.5t156 -31.5q142 0 235 71q93 69 143 194h38q-80 -204 -268 -273 q-66 -24 -138 -28q-131 0 -231 58t-155 153q-58 98 -58 224q0 133 62 243.5t157 172.5q101 68 225 68q171 0 267 -102q98 -101 98 -241q0 -98 -39.5 -178t-102.5 -125q-64 -44 -128 -44q-103 0 -103 56q0 30 6 53q6 24 6 32q0 7 -4 7q-3 0 -11 -5q-24 -21 -47 -42 q-42 -37 -74 -60q-31 -22 -48 -22q-31 0 -46 49q-9 32 -9 60v6q0 102 75 193q75 90 183 126q52 18 108 18q8 0 9 -13l-74 -338q0 -3 -1 -10t-1 -10zM608 420q0 8 -19 8q-44 0 -91 -26q-84 -44 -108 -150q-11 -51 -13 -82q0 -43 8 -64t34 -21q37 19 76 54q14 13 35.5 32.5 t29.5 26.5z" />
<glyph unicode="A" horiz-adv-x="760" d="M236 14q-1 -6 -1.5 -7.5t-1.5 -3.5t-3 -2.5t-6 -0.5h-224q-10 0 -10 6q0 14 10 14h11q19 0 29 7q7 6 34 39q71 93 225 293t230 300q18 23 23 27q8 6 19 6h13q22 0 22 -26l15 -593q1 -23 19.5 -38t46.5 -15h9h22q6 0 6 -8v-5q0 -7 -7 -7h-303q-7 0 -7 5v10q0 5 12 5 q48 0 73.5 9.5t35.5 40.5q6 20 6 53l-3 141v8q0 20 -26 22h-196q-20 0 -32 -17q-17 -23 -54 -70.5t-38 -49.5q-12 -16 -37 -51q-9 -18 -9 -38q0 -23 19.5 -35.5t47.5 -12.5h23q5 0 7 -6zM505 331q24 0 24 24l-6 219q0 13 -4 13q-5 0 -15 -13q-18 -25 -77.5 -101.5 t-68.5 -88.5q-22 -29 -30 -41q-5 -8 -5 -9q0 -3 2 -3h180z" />
<glyph unicode="B" horiz-adv-x="637" d="M230 625q0 18 -10.5 26.5t-22.5 10t-39 1.5h-33q-3 0 -4 4l4 17q0 2 1 3.5t3 0.5h281q151 0 207 -83q20 -31 20 -64q0 -45 -18.5 -72t-52.5 -49q-26 -18 -61 -31l-12 -5q125 -77 125 -167q0 -217 -276 -217h-275q-56 0 -56 2q-1 1 -1 2l3 17q2 5 10 3q81 0 95 62l110 515 q2 14 2 24zM523 219q0 69 -45 112.5t-115 43.5h-87q-10 0 -15 -17q-8 -37 -25 -119.5t-28 -129.5q-2 -12 -2 -18q0 -10 11 -24q32 -45 104 -45q87 0 144.5 55.5t57.5 141.5zM548 529q0 62 -30.5 98t-90.5 36q-67 0 -84 -3q-18 -4 -22 -19l-46 -214v-7q0 -12 14 -14 q31 -3 70 -3q73 0 131 34.5t58 91.5z" />
<glyph unicode="C" horiz-adv-x="747" d="M634 10l-40 6q-34 0 -86 -15q-51 -16 -87 -16q-83 0 -161 27q-95 33 -150.5 106t-55.5 187q0 121 70 212t174 141q108 51 220 51q104 0 197 -29q57 -20 57 -46q0 -36 -15 -82q-15 -45 -20 -56q-4 -11 -13 -11q-6 0 -8 8q-2 69 -16 95q-19 37 -65 64t-97 27 q-99 0 -191 -54q-88 -51 -145 -138t-57 -201q0 -109 73 -190q75 -81 195 -81q77 0 143 48q65 50 87 108q7 22 25 22q12 0 12 -8q0 -5 -2.5 -15.5t-2.5 -13.5q-3 -15 -13 -59.5t-14 -64.5q-3 -15 -5 -18.5t-9 -3.5z" />
<glyph unicode="D" horiz-adv-x="790" d="M221 625q0 25 -18 32t-57 7h-31q-3 0 -4 3l4 17q0 4 3 4h2h282q131 0 232.5 -50.5t138.5 -141.5q18 -42 18 -97q0 -104 -47 -191q-55 -102 -167 -155t-273 -53h-301q-3 0 -3 4l3 17q2 5 11 3q82 0 94 62l110 515q2 11 3 24zM200 108q-1 -3 -1 -16q0 -12 10 -25t36 -28 q26 -14 77 -14q47 0 103 17t93 38q179 98 179 326q0 181 -176 238q-72 23 -160 23q-43 0 -48 -26z" />
<glyph unicode="E" horiz-adv-x="664" d="M209 624q0 23 -29.5 34t-64.5 11q-3 0 -3 4l2 12q1 4 5 3h511q24 0 24 -10q0 -4 -2 -22q0 -3 -2 -17.5t-6 -42t-8 -57.5q-1 -7 -12 -7q-13 0 -13 27q0 44 -24 73.5t-66 29.5h-180q-27 0 -32.5 -4t-10.5 -28l-51 -244q-1 -3 -1 -6q0 -12 21 -12h179q32 0 58.5 21t41.5 49 q3 6 9 6h8q4 0 4 -4v-4l-39 -182q-1 -10 -9 -10q-7 0 -8.5 1.5t-2.5 7.5q-1 5 -1 15q0 63 -76 63h-177q-20 0 -26 -34q-2 -14 -21 -97q-2 -12 -7.5 -36.5t-8.5 -43t-3 -35.5q0 -34 24 -44.5t75 -10.5q77 0 125.5 6t79.5 27q15 10 30.5 24.5t38 38t24.5 25.5q9 10 19 10 t10 -9q0 -7 -13 -34q-8 -18 -20 -54.5t-13 -39.5q-6 -13 -12 -18.5t-20 -5.5h-533q-3 0 -3 4l2 12q1 4 12 4q38 0 56.5 16t26.5 53q8 39 43.5 202.5t54.5 252.5q11 52 12 59q2 14 2 21z" />
<glyph unicode="F" horiz-adv-x="659" d="M601 560q0 44 -24.5 73t-66.5 29h-166q-30 0 -36 -5t-12 -32l-50 -239v-6q0 -14 20 -12h180q29 0 58 19.5t42 47.5q4 9 9 9h6q7 0 7 -5q0 -1 -5 -24q-2 -10 -18 -87t-18 -80q-3 -4 -8 -4q-8 0 -9.5 4t-1.5 15q-1 36 -19.5 52t-57.5 16h-178q-5 0 -9 -1.5t-6.5 -2.5 t-4.5 -5.5t-2.5 -6t-2.5 -9t-2 -9.5q-8 -34 -18.5 -85.5t-17.5 -83.5q-12 -57 -12 -70q0 -24 33 -34q22 -4 58 -4q3 0 3 -4l-2 -12q-1 -4 -5 -4h-262q-3 0 -3 4l2 12q1 4 12 4q38 0 56.5 16t26.5 53q11 53 32 148.5t37 169t29 143.5q14 67 14 71q0 48 -94 48q-3 0 -3 4l3 12 q1 4 5 3h510q23 0 25 -8q0 -7 -1 -8l-27 -128q-3 -12 -13 -12q-13 0 -13 28z" />
<glyph unicode="G" horiz-adv-x="793" d="M625 209q0 17 -18.5 28.5t-38.5 11.5q-19 0 -19 9t22 9h50l96 -1h49q22 0 22 -10q0 -7 -19 -7q-17 0 -31.5 -12.5t-18.5 -28.5q-24 -116 -26 -122q-2 -8 -2 -10q0 -16 30 -16q9 0 9 -6q0 -16 -32 -27q-51 -18 -154 -29q-102 -11 -115 -11q-167 0 -274 90 q-106 90 -106 252q0 107 68.5 193t164.5 136q100 51 196 51q83 0 113.5 -2.5t82.5 -15.5q37 -10 58 -18q24 -11 26 -13q6 -9 10 -56.5t4 -73.5q0 -24 -8 -24q-7 0 -11.5 2.5t-6.5 5.5t-4 10q-22 76 -88 126q-48 36 -139 36q-98 0 -181.5 -55t-133.5 -134q-53 -86 -53 -181 q0 -133 67 -215q68 -83 187 -83q121 0 173 34q22 14 26 36l24 108q1 4 1 13z" />
<glyph unicode="H" horiz-adv-x="793" d="M656 59q0 -39 91 -39q3 0 3 -4l-2 -12q-1 -4 -5 -4h-262q-3 0 -3 4l2 12q1 4 12 4q39 0 57 17t27 57q3 15 14.5 65.5t16.5 76.5q13 56 13 70q0 30 -25 30h-324q-24 0 -34 -37q-42 -198 -47 -223q-2 -14 -2 -19q0 -21 34 -32q17 -5 57 -5q3 0 3 -4l-3 -12q-1 -4 -4 -4 h-262q-3 0 -3 4l2 12q1 4 12 4q38 0 56.5 16t26.5 53l111 521q2 10 2 14q0 45 -81 45q-5 0 -5 5l2 11q1 4 5 3h255q4 0 2 -3l-2 -12q-1 -4 -11 -4q-40 0 -58 -16.5t-27 -56.5q-4 -22 -14.5 -69t-14.5 -71q-10 -49 -14 -62l-2 -10q0 -11 16 -11h347q18 0 29 51q5 22 14 67 t15 70q12 59 12 61q0 47 -83 47q-3 0 -3 4l2 12q1 4 5 3h255q3 0 3 -3l-3 -12q-1 -4 -11 -4q-39 0 -58 -16t-26 -54l-111 -521q-2 -10 -2 -19z" />
<glyph unicode="I" horiz-adv-x="325" d="M188 59q0 -39 91 -39q3 0 3 -4l-3 -12q-1 -4 -4 -4h-262q-3 0 -3 4l2 12q1 4 12 4q39 0 57.5 15.5t25.5 53.5q31 149 61 289t41 192l11 53q0 46 -83 46q-3 0 -3 4l2 12q1 4 5 3h255q4 0 2 -3l-2 -12q-1 -4 -11 -4q-39 0 -57.5 -16t-26.5 -54l-111 -521q-2 -10 -2 -19z " />
<glyph unicode="J" horiz-adv-x="280" d="M226 633q0 23 -21.5 29.5t-62.5 6.5q-3 0 -3 4l3 12q1 4 4 3h255q3 0 3 -3l-3 -12q-1 -4 -22 -4t-43 -13q-21 -14 -30 -57q-123 -583 -146 -688q-14 -58 -50 -115q-34 -56 -94.5 -90t-141.5 -34q-82 0 -82 31q0 45 55 45q9 0 57 -12t57 -12q31 0 47.5 16.5t29.5 49.5 q12 31 23 72q16 54 61 267l86 412q18 83 18 92z" />
<glyph unicode="K" horiz-adv-x="759" d="M605 644q0 15 -5.5 20t-21.5 5h-17q-9 0 -9 6v8q0 5 8 5h243q6 0 6 -5v-8q0 -6 -13 -6q-17 0 -32 -4t-31 -11.5t-26 -10.5q-25 -9 -56 -30q-26 -17 -81.5 -57.5t-71.5 -51.5q-19 -13 -57.5 -41t-56.5 -41q-35 -24 -35 -28t5 -12q2 -4 23 -28q23 -26 97 -116.5t101 -120.5 q17 -19 30 -36q49 -61 92 -61h1h32q4 0 5 -6v-9q0 -5 -6 -5h-168q-28 38 -89.5 110t-77.5 91q-5 6 -43.5 52t-54.5 67q-17 17 -25 17q-11 0 -20.5 -11t-12.5 -25l-48 -223q-2 -10 -2 -19q0 -39 91 -39q3 0 3 -4l-3 -12q-1 -4 -4 -4h-262q-3 0 -3 4l2 12q1 4 12 4 q38 0 56.5 16t26.5 53l113 532q1 3 1 12q0 7 -9 15q-26 21 -75 21q-3 0 -3 4l2 12q2 3 4 3h1h255q4 0 2 -3l-2 -12q-1 -4 -11 -4q-41 0 -58.5 -16.5t-26.5 -58.5q-7 -31 -20 -93t-20 -93l-4 -19q-2 -14 2 -14t12 7q49 34 143.5 102t139.5 100q42 28 48 37q4 7 4 23z" />
<glyph unicode="L" horiz-adv-x="627" d="M10 6q0 14 14 14q40 0 57.5 15t24.5 54q8 39 36 170.5t43 199.5q33 157 33 167t-9 19q-25 24 -85 24q-3 0 -3 4l3 12q1 4 4 3h287q3 0 3 -3l-2 -12q-1 -4 -12 -4q-88 0 -103 -70q-27 -119 -91 -431q-3 -13 -5.5 -26.5t-4 -21t-2.5 -10.5q0 -4 -0.5 -9t-0.5 -6 q0 -65 91 -65q137 0 176 16q45 18 64 38q36 32 52 52q21 25 33 25q10 0 10 -9q0 -6 -12 -34q-7 -17 -19 -50.5t-16 -43.5q-5 -14 -10.5 -19t-20.5 -5h-530q-5 0 -5 6z" />
<glyph unicode="M" horiz-adv-x="918" d="M874 11q0 -11 -20 -11h-263q-10 0 -10 7l1 5q0 8 14 8q32 0 58 27t33 60q23 110 86 402l9 43q1 3 1 6v5q0 10 -11 -2q-2 -3 -3 -5l-334 -523q-21 -33 -39 -33q-14 0 -18 7q-3 7 -9 44q-6 34 -27.5 173t-33.5 207q-22 139 -25 159q-1 9 -3 9q-4 0 -9 -14q-7 -24 -48 -181 q-6 -22 -25 -95.5t-30 -109.5q-18 -60 -18 -93q0 -52 30 -78q10 -9 28 -9q18 1 18 -6v-7q0 -6 -19 -6h-188q-9 0 -9 10q0 4 1 6t3 3.5t4.5 2.5t7 2.5t8.5 2.5q19 7 50 41q20 23 32 76q6 23 41 152t42 157q8 29 14.5 53.5t10.5 39.5t10 38q5 22 5 32q0 24 -16.5 38.5 t-41.5 14.5h-20q-11 0 -11 10q0 8 11 10h183q16 0 18 -21q6 -48 23.5 -154t21.5 -131q5 -35 18 -113.5t17 -103.5q1 -5 2 -12l1.5 -10.5l1 -7t2 -5t3.5 -1.5q3 0 6 5q3 4 308 481q40 63 44 67q5 5 15 5h155q12 0 12 -9q0 -11 -31 -11t-47 -18q-17 -18 -30 -82q-1 -4 -5 -21 t-7 -32.5t-3 -19.5l-84 -397q-1 -5 -1 -17q0 -24 15.5 -42t37.5 -19h23q14 0 14 -9z" />
<glyph unicode="N" horiz-adv-x="837" d="M110 678q0 10 19 10h122q26 0 38 -5q10 -5 23 -27l339 -497q10 -15 13 -15q4 0 8.5 15t8 37t3.5 24q6 32 27.5 132.5t30.5 143.5q10 40 16 72q6 21 6 39q0 34 -25 53q-11 9 -57 9q-10 0 -12 11q0 8 15 8h215q11 0 11 -9q0 -10 -11 -10h-20q-40 0 -65 -34 q-12 -16 -37 -138q-13 -59 -38.5 -184t-39.5 -186q-9 -40 -18 -87q-3 -21 -9 -34q-3 -6 -10 -6q-12 0 -28 21q-7 8 -13 19q-1 1 -44 67q-202 294 -239 349q-11 16 -29 43t-28 41q-27 40 -33 40q-7 0 -12 -23q-10 -48 -34.5 -163t-34.5 -165q-13 -58 -13 -86q0 -123 74 -123 h6q20 0 20 -9v-4q0 -7 -11 -7h-220q-16 0 -16 10q0 8 4.5 12t15.5 6.5t13 3.5q20 8 41 33.5t26 47.5l103 485q0 3 2.5 13t2.5 16q0 19 -31 31q-25 11 -44 11h-16q-15 0 -15 9z" />
<glyph unicode="O" horiz-adv-x="796" d="M508 15q-52 -15 -105 -15q-97 0 -176 43q-74 40 -120 113t-46 170q0 104 56.5 192t137.5 137q89 54 185 54q181 0 273 -85q94 -84 94 -216q0 -111 -55 -206q-82 -142 -244 -187zM158 305q0 -119 63.5 -202t169.5 -83q104 0 175 64q68 59 108.5 154.5t40.5 208.5 q0 105 -63 176q-63 70 -185 70q-145 0 -231 -123q-78 -113 -78 -265z" />
<glyph unicode="P" horiz-adv-x="593" d="M293 293q109 0 172 58.5t63 165.5q0 147 -173 149q-42 0 -45 -25l-120 -563q-2 -10 -2 -19q0 -39 91 -39q3 0 3 -4l-3 -12q-1 -4 -4 -4h-262q-3 0 -3 4l2 12q1 4 23 4t42 13q21 14 30 56l6 32q3 13 23 105t23 111q59 265 59 289q0 17 -11 25.5t-24 10t-40 2.5h-31 q-3 0 -3 3l4 17q0 2 1 3.5t3 0.5h250q73 0 109 -13q141 -49 142 -155q0 -94 -46 -147q-85 -103 -279 -103q-8 0 -12.5 2t-3.5 6q0 15 16 15z" />
<glyph unicode="Q" horiz-adv-x="799" d="M739 -138q6 0 22 4t23 4q11 0 11 -13q0 -16 -41.5 -28.5t-67.5 -12.5q-70 0 -161 56q-104 64 -126 80q-78 58 -131 75q-98 29 -152 119q-55 89 -55 193q0 109 60.5 193.5t151.5 128.5q95 48 204 48q133 0 231 -87q62 -54 88 -136q13 -39 13 -84q0 -92 -43 -171t-109 -132 q-69 -57 -160 -83q-23 -6 -23 -15t43 -33q18 -11 46 -29t50 -32t47 -26q35 -19 79 -19zM389 25q104 0 177.5 61.5t111.5 154.5q38 96 38 200q0 106 -65 180q-64 73 -170 73t-178 -59t-110 -152q-38 -94 -38 -197q0 -104 66 -183q66 -78 168 -78z" />
<glyph unicode="R" horiz-adv-x="735" d="M700 30q26 0 26 -12v-8q0 -10 -16 -10h-36q-132 0 -229 129q-18 24 -44.5 65.5t-34.5 52.5q-11 15 -22 33q-3 4 -8.5 15t-10.5 14.5t-15 3.5l-64 -3q-7 0 -8 -7l-48 -225q-2 -10 -2 -20q0 -38 87 -38h4q3 0 3 -4l-3 -12q-1 -4 -4 -4h-262q-3 0 -3 4l2 12q1 4 12 4 q38 0 56.5 16t26.5 53q2 18 10.5 54t10.5 44q11 55 32 154t30 142q29 129 29 142q0 18 -12.5 27t-27 10.5t-41.5 1.5h-26q-3 0 -3 4l3 13q1 7 7 7h242q123 0 187.5 -38t64.5 -135q0 -54 -47 -98q-36 -33 -132 -84q-14 -8 -14 -14q0 -7 6 -16q39 -64 105 -154 q98 -119 157 -119h12zM521 533q0 60 -39 96t-102 36l-25 1q-41 0 -45 -25l-60 -281q-2 -10 -2 -16q0 -9 25 -9q55 0 115 25q57 24 95 67.5t38 105.5z" />
<glyph unicode="S" horiz-adv-x="510" d="M350 679q-51 0 -90.5 -33.5t-39.5 -80.5q0 -65 75 -127q16 -13 45 -38t45 -38q97 -81 97 -161q0 -101 -72 -151q-71 -50 -163 -50q-55 0 -115 18.5t-97 48.5q-11 9 -11 12q3 22 12.5 65t12.5 60q4 28 21 28q11 0 11 -17q0 -95 42 -141.5t132 -46.5q60 0 108 36.5t48 90.5 t-51 107q-16 16 -84 76t-94 97q-27 39 -27 84q0 85 61 136q62 50 144 50q45 0 69 -9q9 -4 21 -8.5t14 -5.5q12 -5 22 -5q18 0 37 13q6 2 9 2q11 -1 9 -22q-15 -123 -17 -138q-3 -15 -16 -15q-12 0 -13 15q-6 105 -88 136q-27 11 -57 12z" />
<glyph unicode="T" horiz-adv-x="694" d="M141 16q0 4 5 4h13q39 0 69.5 19t36.5 49l115 540q0 2 1 4q0 10 -15 10h-144q-38 0 -67 -36t-36 -76q-2 -8 -7 -8h-11q-3 0 -3 3q22 113 30 147l4 21q2 15 13 15q3 0 6 -3l10 -10q7 -7 27 -7h513q5 0 8.5 0.5t7 1.5t5 1.5t4 2.5t3.5 3t3.5 4t3.5 4q2 3 7 3q13 0 13 -12 q0 -2 -6 -33q-1 -5 -26 -123l-3 -13q0 -5 -6 -5h-6q-4 0 -9 18.5t-9 42.5l-4 24q-12 35 -39 35h-154q-16 0 -18 -14q-16 -79 -45.5 -213.5t-42.5 -196.5q-6 -30 -27 -128q-2 -12 -2 -16q0 -8 10 -18q15 -14 42.5 -25t54.5 -11h14q4 0 4 -4v-12q0 -4 -4 -4h-335q-4 0 -4 4v12 z" />
<glyph unicode="U" horiz-adv-x="790" d="M411 0q-115 0 -201.5 53t-86.5 144q0 19 35 185q10 47 19.5 91t14.5 67t6 28l8 36q3 16 3 24t-8 18q-20 23 -76 23q-3 0 -2 4l2 12q1 3 4 3h1h254q3 0 3 -3l-2 -12q-1 -4 -23 -4q-19 0 -42 -13q-20 -16 -29 -57l-76 -351q-5 -25 -5 -52q0 -32 18 -63t42 -52 q56 -47 126 -47q223 0 270 215l59 279q8 37 8 61q0 80 -77 80h-14q-10 0 -10 7v5q0 7 9 7h220q7 0 7 -6v-5q0 -3 -3.5 -5t-9 -3l-11 -2t-11.5 -2t-8 -1q-20 -4 -30 -14.5t-15 -34.5l-15 -70q-6 -27 -29.5 -137.5t-37.5 -176.5q-24 -109 -96 -170t-191 -61z" />
<glyph unicode="V" horiz-adv-x="752" d="M817 688h4q10 0 10 -8q0 -11 -16 -11q-5 0 -10 -1t-9 -1.5t-9 -3l-8 -4t-7.5 -5t-6.5 -5t-7 -6t-6 -5.5l-6 -6l-6 -6q-14 -15 -23 -26t-22 -28.5t-25 -31.5q-33 -42 -186 -230t-189 -233q-39 -49 -51 -63q-13 -17 -14 -18q-8 -9 -19 -9h-13q-11 0 -11 11l21 614 q0 27 -19.5 42t-52.5 15q-14 0 -14 10q0 9 13 9h257q10 0 10 -9q0 -10 -30 -10h-17q-23 0 -38.5 -21t-16.5 -47q-3 -72 -8 -229.5t-7 -219.5v-15q0 -7 5 -7q6 0 16 13q14 18 84 104l162 200q29 37 87 107q38 44 38 68q0 28 -15 37.5t-49 9.5q-12 0 -12 10q0 9 12 9h204z" />
<glyph unicode="W" horiz-adv-x="1055" d="M1004 625q0 18 -15 31t-35 13q-22 0 -22 10q0 9 10 9h180q12 0 12 -9q0 -10 -12 -10q-34 0 -44 -13q-31 -43 -217.5 -304.5t-253.5 -352.5q-9 -12 -21 -12h-11q-10 0 -10 13l1 11q12 300 13 329q1 22 4 58t3 60v19q0 21 -6 21t-10 -6t-28 -38q-54 -70 -165.5 -219 t-165.5 -219l-14 -19q-7 -10 -25 -10h-11q-10 0 -10 13l47 602l2 28v3q0 36 -68 36q-10 0 -10 8t2.5 9.5t9.5 1.5h233q9 0 9 -8q0 -11 -17 -11q-70 0 -76 -73q-5 -54 -15 -188t-14 -178q0 -2 -3 -32t-3 -44q0 -24 6 -24q3 0 8 5q44 60 314 417q18 24 18 43q0 30 -21 52 t-50 22q-11 0 -11 9q0 10 7 10h246q8 0 8 -10q0 -9 -11 -9h-9q-67 0 -74 -39q-2 -44 -11 -249t-10 -241q0 -6 3 -6q5 0 14 13l15 22q20 29 74.5 104t75.5 105q24 36 54 76l22 32q2 3 25 33t33 45q2 4 11.5 15.5t14 22t4.5 23.5z" />
<glyph unicode="X" horiz-adv-x="752" d="M193 66q0 -16 17 -31t34 -15h19q4 0 6.5 -1.5t1.5 -3.5v-9q0 -6 -7 -6h-248q-6 0 -6 6v7q0 6 7 7h17q47 0 108 64l249 267q5 5 5 8q0 1 -1 3t-1 3l-136 257q-15 28 -38.5 37.5t-68.5 9.5h-9q-8 0 -8 7v6q0 7 7 7l291 -1q11 0 11 -5v-7q0 -7 -10 -7h-45q-13 0 -23.5 -9.5 t-10.5 -21.5t10 -31q5 -11 24.5 -47t24.5 -46q18 -37 42 -78q3 -4 3 -6q3 0 5 2l1 2l5 5l6 6q16 15 51.5 52.5t50.5 53.5q57 57 57 81q0 37 -37 37h-32q-9 0 -9 6v8q0 5 8 5h243q7 0 7 -5v-7q0 -7 -16 -7q-26 0 -43 -6q-22 -10 -42 -23q-8 -8 -26 -26.5t-28 -28.5 q-166 -172 -170 -179q-7 -10 -7 -15q0 -14 32 -67q2 -3 54 -104q50 -98 68 -125q18 -28 28 -39q21 -22 60 -31q20 -5 20 -11v-9q0 -5 -6 -5h-267q-6 0 -6 4v6q0 9 7 10h19q17 0 35.5 14.5t18.5 30.5t-4 24q-5 10 -42 78.5t-51 96.5q-19 37 -24 43q-8 8 -12 8q-7 0 -29 -25 q-141 -153 -155 -167q-1 -1 -5.5 -5t-5.5 -5.5t-5 -5t-5.5 -5.5t-4 -6t-4 -7t-3 -6.5t-2 -8t-0.5 -8.5z" />
<glyph unicode="Y" horiz-adv-x="724" d="M392 72q0 -25 24.5 -38.5t57.5 -13.5h23q9 0 9 -7v-7q0 -6 -8 -6h-305q-10 0 -10 7v6q0 6 10 7h29q32 0 56 20.5t30 48.5q5 31 18 96.5t16 83.5q0 7 -1.5 11.5t-5 10.5t-5.5 11q-89 206 -117 271q-26 59 -43 76q-16 19 -32 19q-15 0 -15 7v6q0 5 9 7h215q9 0 9 -7v-6 q0 -6 -7 -7h-19q-16 0 -27.5 -10.5t-11.5 -27.5q0 -9 11 -36q12 -27 47.5 -111t47.5 -111q4 -8 7.5 -15.5t5 -11t1.5 -4.5q10 -27 29 -3q27 33 71 84.5t67 79.5q39 46 60 72q22 25 25 35q4 9 4 23q0 15 -11.5 25.5t-27.5 10.5h-18q-10 0 -10 7v7q0 7 10 6h181q7 0 7 -5v-7 q0 -3 -0.5 -4.5t-2.5 -2.5t-3.5 -1.5t-5 -1t-5.5 -0.5q-11 -3 -19 -8q-13 -7 -33 -29q-14 -15 -62 -73q-31 -38 -116 -138.5t-120 -142.5q-10 -50 -24 -113q-15 -69 -15 -90z" />
<glyph unicode="Z" horiz-adv-x="722" d="M23 0q-13 0 -13 13q0 18 16 34l536 562q34 34 34 43q0 10 -18 10h-203q-54 0 -81 -13q-61 -27 -97 -104q-12 -25 -19 -37q-6 -8 -16 -8t-10 7q0 3 1 6t2 7.5t2 7.5q1 9 6 28l10 45q10 45 11 50q1 3 2 9t1.5 8t2 6t2.5 5t3 3.5t4 2.5t6 1t8.5 1.5t10.5 0.5h487 q16 0 16 -15q0 -13 -7 -20l-529 -556q-41 -41 -41 -51q0 -9 6 -9h304q118 0 189 143q10 22 25 22q11 0 11 -8q0 -5 -1 -8l-48 -172q-5 -14 -18 -14h-595z" />
<glyph unicode="[" horiz-adv-x="393" d="M516 845l-9 -42h-132q-35 0 -43 -35q-23 -108 -76 -354.5t-84 -399.5q-12 -52 -14 -62q-10 -43 -10 -53q0 -24 30 -24h143l-9 -42h-253l214 1012h243z" />
<glyph unicode="\" horiz-adv-x="340" d="M292 -13h-63l-195 722h64z" />
<glyph unicode="]" horiz-adv-x="382" d="M407 845l-215 -1012h-253l9 42h144q34 0 42 36l183 857q1 5 1 12q0 23 -28 23h-134l8 42h243z" />
<glyph unicode="^" horiz-adv-x="432" d="M277 579l-149 -247h-72l206 341h30l202 -341h-73z" />
<glyph unicode="_" horiz-adv-x="495" d="M-8 -100h511v-56h-511v56z" />
<glyph unicode="`" horiz-adv-x="341" d="M68 669q0 18 10 29t27 11t35 -24l104 -144q2 -2 2 -3t-2 -3l-11 -14q-2 -2 -3 -2t-3 2l-132 106q-27 23 -27 42z" />
<glyph unicode="a" horiz-adv-x="448" d="M345 376q0 8 -18 8q-43 0 -92 -26q-84 -44 -108 -150q-12 -54 -12 -82q0 -44 7.5 -64.5t33.5 -20.5q38 20 76 55q60 54 65 58zM348 67q0 -6 4 -12t9 -6q7 0 26 18t25 18q8 0 8 -9t-53 -50t-67 -41q-24 0 -24 44q0 25 6 48q5 20 5 33q0 6 -2 6q-7 0 -24 -16 q-78 -69 -109 -91q-29 -22 -48 -22q-32 0 -45 49q-10 33 -10 66q0 102 76 193q75 90 182 126q53 18 109 18q8 0 8 -13l-74 -338q0 -3 -1 -10t-1 -11z" />
<glyph unicode="b" horiz-adv-x="437" d="M125 65q0 -25 16 -41.5t42 -16.5q30 0 52 19q90 77 113 247q4 27 4 53q0 71 -42 71q-35 -17 -76 -54q-33 -32 -63 -58l-44 -203q-2 -10 -2 -17zM362 452q29 0 43.5 -40t14.5 -86q0 -185 -112 -289q-56 -50 -129 -50q-57 0 -94 37q-24 26 -24 62q0 12 3 25l127 600 q1 3 1 8v5q0 12 -10 12q-7 0 -58 -23l-6 16q136 75 148 75q10 0 10 -12q0 -9 -8 -46q-5 -21 -31.5 -162.5t-42.5 -198.5q-13 -46 -13 -50q0 -8 7 -8q8 0 24 16q61 56 101 85q31 24 49 24z" />
<glyph unicode="c" horiz-adv-x="332" d="M315 363q-16 0 -41.5 16t-42.5 16q-16 0 -32 -17q-47 -47 -71 -158q-16 -65 -16 -95q0 -99 65 -99q28 0 50 16q11 7 30 22t32 23l10 -13q-45 -46 -68 -59q-46 -28 -96 -28q-97 0 -97 107q0 143 83 249q50 62 108 86q26 11 52 11h2q28 0 38.5 -10t10.5 -38q0 -29 -17 -29z " />
<glyph unicode="d" horiz-adv-x="465" d="M166 292q-47 -103 -47 -180q0 -45 13 -58t29 -13q38 20 76 55q60 54 65 58l41 188q1 5 1 14q0 16 -18 35q-16 18 -45 18q-27 0 -47 -18q-40 -37 -68 -99zM353 67q0 -6 4 -12t8 -6q7 0 27 18t25 18q8 0 8 -9t-53 -50t-67 -41q-24 0 -24 44q0 23 5 48q5 20 5 33q0 6 -2 6 q-6 0 -25 -16q-75 -68 -108 -91q-29 -22 -47 -22q-31 0 -46 49q-10 33 -10 69q0 62 35 142q37 83 94 137q56 55 121 55q17 0 30 -10q14 -11 19 -11q6 0 8 6l61 287q2 10 2 13q0 12 -10 12q-8 0 -59 -23l-6 16q136 75 147 75q10 0 10 -11q0 -14 -1 -21l-149 -684q0 -3 -1 -10 t-1 -11z" />
<glyph unicode="e" horiz-adv-x="385" d="M340 372q0 49 -41 49q-40 0 -70 -36q-46 -51 -72 -155q0 -8 13 -8q74 21 106 44q33 23 48 47q16 23 16 59zM135 130q0 -104 86 -104q45 0 113 41l7 -12q-49 -39 -116 -59q-28 -9 -58 -9q-54 0 -81 42.5t-27 106.5q11 108 78 201q47 62 111 89q30 13 56 13h4 q41 0 66.5 -17t25.5 -51q0 -76 -94 -119q-28 -12 -86.5 -29.5t-69.5 -21.5q-15 -35 -15 -71z" />
<glyph unicode="f" horiz-adv-x="299" d="M-163 -237q19 0 50.5 -21t49.5 -21q46 0 80 77q30 88 46 172l87 428v4q0 11 -18 11h-44l4 19q69 2 73 21q0 1 10 54q18 84 35 125q68 171 218 171q23 0 44 -12.5t21 -30.5q0 -32 -26 -32q-10 0 -22 6t-27.5 17.5t-16.5 12.5q-11 6 -27 6q-33 0 -53 -17q-18 -17 -33 -51 q-21 -63 -33 -122q-5 -25 -13 -64t-11 -60q0 -17 16 -17h62l-6 -26h-70q-10 0 -15 -26l-89 -417q-18 -86 -67.5 -162t-113.5 -105q-33 -15 -59 -15q-39 0 -58 15q-19 13 -19 28q0 32 25 32z" />
<glyph unicode="g" horiz-adv-x="446" d="M133 185q0 -46 17 -77t51 -31q22 0 48 26q78 80 78 211q0 100 -66 102q-37 0 -68 -40q-54 -70 -60 -191zM-20 -222q0 -76 162 -76q80 0 126 28q31 19 31 48q0 30 -65 75q-18 12 -54 36.5t-54 36.5q-8 -6 -27.5 -17t-24.5 -15q-45 -28 -63 -47q-31 -30 -31 -69zM111 -61 l-5 15q-5 15 -5 24q0 16 5.5 24.5t20.5 22.5q17 17 17 19q0 4 -17 21q-26 23 -36.5 39.5t-19.5 48.5q-7 22 -7 55q0 56 40 111q34 48 90.5 84t116.5 36q128 0 128 -16v-22q0 -7 -9 -7h-57q18 -70 18 -103q0 -61 -32 -108q-30 -45 -88 -93q-17 -14 -57 -32q-39 -17 -50 -24 q-13 -7 -13 -22t15 -31q21 -25 84 -67q98 -66 100 -120q0 -72 -121 -97q-44 -9 -89 -9q-106 0 -155 16q-66 21 -66 72q0 54 123 121q58 31 69 42z" />
<glyph unicode="h" horiz-adv-x="479" d="M385 381q0 11 -15 11q-5 -1 -22 -12q-16 -12 -36 -30q-28 -25 -77 -76t-67 -75q-12 -16 -15 -31l-34 -163q-34 -20 -51 -20h-1q-18 1 -18 15q0 3 1.5 12t4 18.5t2.5 11.5l142 669q2 10 2 13q0 12 -9 12t-58 -23l-7 16q137 75 147 75t10 -17q0 -1 -3 -15l-111 -523 q0 -5 5 -5t17 13q36 42 65 71q49 49 92 80t72 31q14 0 25.5 -11t11.5 -24q0 -11 -2 -19l-87 -338v-2q0 -11 12 -11q20 0 69 52l8 8l9 -10q-16 -31 -92 -82q-22 -16 -39 -16q-15 0 -27 11t-12 25t1 19l87 338v2z" />
<glyph unicode="i" horiz-adv-x="271" d="M226 559q-29 0 -29 41q0 19 14 50q13 30 37 30q14 0 22.5 -11t8.5 -28q0 -21 -16 -52q-17 -30 -37 -30zM118 -13q-15 0 -25.5 11.5t-10.5 26.5q0 8 2 22l70 332v2q0 11 -12 11q-20 0 -64 -47q-9 -10 -13 -13l-9 9q10 19 59 59q50 39 71 39q20 0 30.5 -12t10.5 -31 l-73 -351q0 -11 12 -11q20 0 68 52l8 8l9 -10q-9 -17 -38 -41t-54 -41q-23 -15 -41 -15z" />
<glyph unicode="j" horiz-adv-x="281" d="M245 559q-29 0 -29 41q0 17 14 50q13 30 37 30q14 0 22.5 -11t8.5 -28q0 -23 -16 -52q-16 -30 -37 -30zM-116 -237q18 0 45 -21t46 -21q26 0 50 40q16 29 37 97q10 37 13.5 52.5t6.5 34t9 46.5q12 54 36 170.5t35 164.5q5 16 7 31l3 16q1 3 1 6q0 11 -12 13 q-21 0 -63 -47q-7 -9 -14 -13l-9 9q10 19 59 59q50 39 70 39q22 0 29 -10q12 -17 12 -29t-33 -169q-13 -60 -28.5 -133t-18.5 -86q-20 -97 -47 -153q-34 -73 -83 -122t-112 -49q-22 0 -43.5 13t-21.5 30q0 32 26 32z" />
<glyph unicode="k" horiz-adv-x="494" d="M171 233q6 0 16 -0.5t25.5 -1t27.5 -0.5h5q100 0 155 60q30 31 30 64q0 49 -35 49t-118 -66l-48 -39t-53 -43zM195 736q-5 0 -17 -5t-24.5 -11t-14.5 -7l-7 16q9 5 35.5 18.5t35.5 18.5q10 6 20 11q47 26 56 26q10 0 10 -15q0 -6 -3 -16l-100 -472q-1 -4 -1 -11 q0 -5 5 -5t31 22q24 20 49 40q124 99 157 99q29 0 44 -28q16 -28 16 -54q0 -56 -57 -98q-56 -42 -166 -42q-3 0 -6.5 -3t-3.5 -6q0 -4 4 -8q9 -13 39 -56q77 -104 120 -104q15 0 27 15q14 15 18 21q6 7 12 7t6 -7q0 -2 -36 -40q-33 -36 -41 -40q-4 -4 -10 -4q-44 0 -97 59 q-20 23 -51 72q-30 49 -54 72l-8 9q-5 5 -8 5q-7 0 -9 -9l-42 -201q-1 0 -13 -5q-26 -14 -40 -14t-14 18q0 15 5 38l142 669q2 6 2 13q0 12 -11 12z" />
<glyph unicode="l" horiz-adv-x="272" d="M100 -13q-14 0 -25.5 11.5t-11.5 24.5q0 9 2 19l143 669q2 10 2 13q0 12 -9 12q-8 0 -59 -23l-6 16q136 75 147 75q9 0 9 -13q0 -12 -15 -82q-15 -71 -63 -291t-70 -328q-2 -11 -4.5 -23.5t-3.5 -19.5v-2q0 -11 12 -10q20 0 69 51l8 8l9 -9q-11 -20 -59 -58 q-49 -40 -75 -40z" />
<glyph unicode="m" horiz-adv-x="758" d="M607 -14q-14 0 -25 11t-11 25t1 19l72 338v2q0 11 -15 11t-46 -33q-41 -43 -83 -88q-22 -27 -41 -48q-5 -6 -9.5 -13t-8.5 -12l-8 -10q-5 -7 -8 -20l-35 -163q-34 -20 -51 -20h-1q-18 1 -18 15q0 3 1.5 12t4 18.5t2.5 11.5l71 337v2q0 11 -15 11q-14 0 -46 -33 q-92 -95 -122 -135q-7 -8 -15 -19t-13 -17q-5 -7 -8 -20l-35 -163q-34 -20 -51 -20h-1q-18 1 -18 15q0 3 1.5 12t4 18.5t2.5 11.5l65 309v2q0 14 -11 14q-7 0 -24 -18l-45 -45l-12 12q10 22 71 72q61 51 82 51q18 0 18 -34q0 -15 -3 -30l-26 -125q0 -4 2 -5t4.5 0t4.5 3 q2 3 39.5 45t52.5 59q33 33 72 60t58 27q17 0 29.5 -10t12.5 -25q0 -11 -2 -19l-27 -128q-1 -3 -1 -9q0 -4 4 -4q10 0 46 45q36 47 60.5 71.5t64.5 51.5q38 27 57 27q17 0 29 -10t12 -25t-1 -19l-72 -338v-2q0 -11 12 -11q21 0 70 52q6 6 7 8l9 -10q-11 -20 -59 -58 q-47 -40 -75 -40z" />
<glyph unicode="n" horiz-adv-x="486" d="M397 381q0 11 -15 11q-7 -1 -22 -12q-11 -9 -34 -30q-24 -23 -73.5 -78.5t-62.5 -76.5q-9 -13 -12 -27l-35 -163q-34 -20 -51 -20h-1q-18 1 -18 15q0 3 1.5 12t4 18.5t2.5 11.5l65 309v2q0 14 -11 14q-7 0 -24 -18l-46 -45l-11 12q10 22 72 72q60 51 81 51q18 0 18 -32 q0 -8 -6 -44q-13 -58 -24 -113q0 -4 2.5 -5t5.5 0t5 3q65 75 70 80q50 54 86 80q38 31 69 31q14 0 25 -10.5t11 -24.5q0 -15 -1 -19l-87 -338v-2q0 -11 12 -11q20 0 69 52l8 8l9 -10q-10 -19 -58 -58q-49 -40 -76 -40q-14 0 -25 11t-11 25t1 19l87 338v2z" />
<glyph unicode="o" horiz-adv-x="444" d="M134 150q0 -49 19 -88t55 -39q66 0 107 80q42 81 42 170q0 59 -27 103q-18 27 -43 27q-45 0 -82 -43q-30 -36 -50.5 -94t-20.5 -116zM347 439q29 0 56 -52q27 -51 27 -104q0 -87 -45 -157q-37 -56 -103.5 -97.5t-139.5 -41.5q-26 0 -54 51q-27 53 -27 97q0 85 44 157 q38 60 103 103.5t139 43.5z" />
<glyph unicode="p" horiz-adv-x="469" d="M158 65q0 -23 15 -40.5t38 -17.5q40 0 81 45q35 40 64 110t29 127q0 25 -1 38.5t-4.5 29t-12.5 22t-24 6.5q-31 -16 -103 -93q-29 -29 -45 -44l-35 -166q-2 -10 -2 -17zM395 439q29 0 43.5 -39t14.5 -85q0 -90 -29.5 -162.5t-80.5 -116.5q-56 -49 -129 -49q-36 0 -70 18 l-52 -242q-2 -10 -2 -13q0 -12 7 -20t21 -11.5t26.5 -4.5t31.5 -1l-3 -16h-239l4 16q48 0 66 25q17 23 31 86l112 527v2q0 14 -11 14q-7 0 -24 -17q-11 -12 -45 -46l-12 12q11 22 73 72q60 51 83 51q19 0 19 -19q0 -12 -7 -44l-15 -63v-7q0 -6 6 -6q7 0 13 6 q114 104 119 108q31 25 49 25z" />
<glyph unicode="q" horiz-adv-x="438" d="M343 376q0 8 -19 8q-44 0 -91 -26q-85 -44 -108 -150q-11 -51 -13 -82q0 -44 7.5 -64.5t34.5 -20.5q38 20 76 55q54 48 64 58zM287 -257q0 -30 50 -30h9q9 0 13 -1l-3 -15h-201l4 16q55 0 60 36l67 363q0 4 -5 4q-4 0 -23 -16q-81 -71 -108 -91q-31 -22 -48 -22 q-31 0 -46 49q-10 33 -10 66q0 100 75 192q74 91 183 127q52 18 108 18q8 0 8 -13z" />
<glyph unicode="r" horiz-adv-x="314" d="M329 440q9 0 14.5 -10t5.5 -25q0 -42 -32 -44l-24 4q-30 0 -67 -37q-38 -36 -48 -85q-1 -6 -4.5 -20.5t-5.5 -22.5l-42 -195q-1 0 -13 -5q-31 -14 -46 -14q-13 0 -13 16q0 3 10 56q24 104 55 257q7 29 7 30q0 3 0.5 6t1.5 5v2q0 7 -5 9q-10 0 -20 -10l-41 -40 q-1 -1 -4 -3q-11 0 -11 10q0 17 59 64q18 16 21 19q37 33 56 33q16 -1 16 -34l-6 -66q0 -10 7 -10q2 0 9 7.5t13 15.5t12.5 17t7.5 10q24 30 45 46q19 14 42 14z" />
<glyph unicode="s" horiz-adv-x="318" d="M279 116q0 -61 -53 -95t-130 -34q-50 0 -73 27q-8 10 -8 23q0 12 10.5 21.5t22.5 9.5q18 0 62 -25q48 -24 70 -24t37.5 17.5t15.5 41.5q0 39 -33 80q-11 15 -30 34q-62 64 -62 108q0 56 56 97q56 40 113 40q21 0 33 -13q20 -23 20 -42q0 -46 -32 -46q-19 0 -33 34 q-15 33 -33 35q-24 0 -49 -23t-25 -46q0 -33 32 -67q1 -2 28 -31q61 -61 61 -122z" />
<glyph unicode="t" horiz-adv-x="283" d="M111 -13q-43 0 -44 39q0 5 2 17l76 355q1 3 1 8q0 7 -8 7h-22q-11 0 -12.5 9t7.5 11q37 14 43 19q29 24 71 74q24 30 30 36q9 -1 17 -7q-1 -2 -4.5 -10.5t-5.5 -13.5q-27 -57 -30 -79v-2q0 -11 12 -11h64l-6 -26h-71q-13 0 -16 -17l-68 -317q-1 -4 -2.5 -13t-2.5 -14 q-1 -2 -1 -4v-2q0 -11 15 -11q14 0 37 23l55 54l6 -8q-8 -22 -58 -69q-52 -48 -85 -48z" />
<glyph unicode="u" horiz-adv-x="513" d="M192 438q14 0 25.5 -11t11.5 -24q0 -12 -69 -338v-2q0 -11 14 -11t59 53q49 57 105 124q41 50 52 94l21 97q2 10 5.5 15t9.5 4h45q5 1 8 -2t3 -9v-3l-8 -35q-7 -34 -26 -126t-40 -190q0 -16 11 -16q7 0 23 18l45 45l12 -12q-6 -13 -38 -42q-86 -80 -115 -80q-18 0 -18 31 q0 17 4 32l35 164q0 4 -2 5t-5 0t-5 -3q-6 -8 -31 -35q-12 -13 -53 -60t-60 -66q-62 -68 -92 -68q-13 0 -24 11.5t-11 23.5v12q0 4 1 6l72 338v2q0 11 -12 11q-20 0 -64 -47q-9 -10 -13 -13l-9 9q10 19 59 59q48 39 74 39z" />
<glyph unicode="v" horiz-adv-x="437" d="M163 442q15 0 28 -11t13 -25q0 -13 -1 -16l-49 -322q-1 -5 -1 -13q0 -19 14 -19q23 0 82 66q57 64 82 116q23 39 37 106q5 25 5 28q0 7 -4 10q-20 17 -20 30q0 18 13.5 32.5t30.5 14.5q22 0 38 -22q17 -23 17 -40q0 -64 -55 -137q-92 -123 -166 -187q-77 -67 -108 -67 q-35 0 -35 61q0 9 2 21l47 312v2q0 10 -12 10q-16 0 -44 -28q-16 -16 -30 -36l-10 8q10 19 37 46t50 43q23 17 39 17z" />
<glyph unicode="w" horiz-adv-x="691" d="M170 439q14 0 25.5 -11t11.5 -24q0 -15 -1 -19l-51 -339v-2q0 -12 15 -10q24 0 123 125q46 58 57 74q8 12 11 24l23 163q0 8 4.5 13.5t10.5 5.5h49q11 -2 10 -14l-53 -357q-1 -3 -1 -6v-6q0 -19 14 -19q20 0 82 68q62 67 84 114q24 40 33 83q9 42 9 50q0 9 -12 19.5 t-12 20.5q0 17 14 32.5t30 15.5q21 0 38 -22q17 -25 17 -41q0 -66 -55 -137q-89 -117 -184 -197q-68 -57 -97 -57q-35 0 -35 61q0 9 2 21l16 108q0 5 -4 5q-3 0 -5.5 -2t-4.5 -4t-5 -5.5t-4 -5.5q-9 -10 -30.5 -35.5t-26.5 -31.5q-41 -46 -82 -81q-38 -30 -67 -30 q-14 0 -25 11t-11 25t1 19l51 338q0 13 -12 13q-20 0 -64 -47q-9 -10 -13 -13l-9 9q10 19 59 59q48 39 74 39z" />
<glyph unicode="x" horiz-adv-x="537" d="M43 -13q-19 4 -19 39q0 32 23 75q6 12 12 12q9 0 11 -16q3 -17 5.5 -24.5t9.5 -14.5t19 -7q34 0 59 34l89 113l-64 166q-7 19 -30 19q-24 0 -48 -35q-1 -1 -5 -8t-7.5 -12.5t-8.5 -10t-9 -4.5q-8 0 -8 5q0 10 21 42q22 31 52 55q29 24 49 24q39 0 50 -26l59 -151 q2 0 11 12q3 5 11 15.5t12 16.5q92 126 154 128q47 0 47 -52q0 -26 -5 -36q-5 -11 -11 -11q-4 0 -8 4t-8 11t-5 8q-18 24 -43 24q-26 0 -74 -57q-10 -12 -35 -43.5t-37 -44.5l67 -173q8 -20 24 -20q20 0 42 35q19 35 30 35q3 -4 3 -14t-10 -29q-12 -23 -26 -39 q-38 -45 -73 -45q-36 0 -45 22q-14 38 -30 79t-22 56t-6 17q-2 6 -4 6q-5 0 -10 -7q-4 -4 -15 -19q-49 -65 -82 -95q-59 -57 -112 -59z" />
<glyph unicode="y" horiz-adv-x="484" d="M151 -266q0 -12 8 -16.5t27 -4.5h37l-4 -16h-229l4 16q32 0 44.5 4t27.5 18q12 12 35 62q38 79 51 115q42 103 42 157q0 103 -7 141q-23 122 -31 138q-14 32 -28 34q-10 -2 -35 -35q-26 -35 -31 -35q-9 0 -9 10t10 24q12 18 49 57q6 5 11.5 11.5t9.5 10t13 8.5q12 6 25 6 t17 -9q71 -122 71 -339q0 -18 10 -24l38 67q56 96 82 169q9 27 9 40q0 17 -8 31q-8 13 -8 20q0 18 12 31.5t29 13.5q50 0 50 -56q0 -24 -12 -51q-19 -42 -73 -125q-108 -165 -122 -191q-8 -18 -38.5 -93t-50.5 -119l-19 -41l-4 -12q-3 -9 -3 -17z" />
<glyph unicode="z" horiz-adv-x="558" d="M531 439q7 0 14.5 -5t7.5 -11q0 -11 -10 -27q-25 -43 -63 -74q-48 -40 -79.5 -61t-94.5 -55q-66 -34 -90 -51q-12 -9 -48 -35q-14 -9 -14 -15q0 -5 8 -5l28 3q64 0 122 -39q38 -25 77 -25q37 0 54 20q18 21 23 25q7 5 12 5q14 0 14 -14q0 -7 -18 -23q-30 -27 -67 -48 q-35 -18 -58 -18q-42 0 -85 26l-24 14q-67 38 -109 38q-19 0 -34.5 -7.5t-18.5 -19.5q-1 -5 -3 -14.5t-3 -14t-3.5 -10.5t-7 -8.5t-11.5 -3.5q-20 0 -20 22q0 41 97 117q96 75 245 152q34 18 51 31q19 15 19 19q0 7 -14 7l-30 -1q-58 0 -120 27q-60 28 -95 28q-15 0 -54 -44 q-8 -8 -12 -8t-9 5t-5 10q0 12 27 36q19 16 52 33.5t56 17.5q51 0 117 -36q67 -35 97 -35q35 0 50 26q2 4 9 31q3 17 20 15z" />
<glyph unicode="{" horiz-adv-x="390" d="M498 828q0 -25 -25 -25q-72 0 -122.5 -35t-62.5 -95q-9 -43 -13 -115q-3 -70 -15 -108t-45 -64q-8 -8 -36 -29q-9 -7 -9 -14q0 -8 11 -22q1 -1 6 -8t6.5 -9t5.5 -8.5t6 -10.5t4 -10t3 -12t1 -13q0 -14 -1 -27t-2.5 -21.5t-5 -21t-5 -17.5t-6.5 -20t-7 -20 q-40 -113 -40 -141q0 -34 11 -53q16 -30 51.5 -49t81.5 -19q6 0 4 -5q0 -30 -12 -30h-15q-80 0 -145 35q-53 29 -53 107q0 46 30 113q52 118 52 167q0 76 -57 76h-1q-11 0 -11 12q0 10 5.5 19t13.5 9q74 0 92 84q5 28 5 52l6 107q5 89 39 131q79 100 239 100q16 0 16 -10z " />
<glyph unicode="|" horiz-adv-x="283" d="M146 803h64v-820h-64v820z" />
<glyph unicode="}" horiz-adv-x="418" d="M318 694q0 109 -136 109h-4q-10 0 -11 12q0 23 22 23q68 0 104 -12q53 -17 74.5 -48t22.5 -79q0 -60 -25 -111q-53 -120 -53 -164q0 -45 61 -60q11 0 11 -11q0 -10 -5.5 -19.5t-13.5 -9.5q-48 0 -74 -47q-29 -50 -29 -105l-4 -104q-3 -155 -157 -224q-41 -18 -117 -18 h-16q-5 0 -5 6q0 29 13 29q67 0 133 43q46 31 61.5 81t22.5 144q5 80 6 83q10 50 48 84q11 10 39 33q9 7 9 16q0 7 -10 20q-1 1 -7.5 8.5t-8 9.5t-6 9.5t-6 12.5t-3.5 12.5t-2 15.5q0 20 3.5 39.5t6.5 30.5t11.5 32.5t11.5 31.5q33 87 33 127z" />
<glyph unicode="~" horiz-adv-x="438" d="M375 293q57 0 57 88h58q0 -63 -29 -108t-80 -45q-19 0 -36.5 6t-27.5 12t-28 19q-45 32 -70 43q-19 9 -35 9q-59 0 -60 -88h-58q0 63 29 108.5t80 45.5q31 0 56 -9q11 -4 31 -16t48 -31t38 -25q14 -9 27 -9z" />
<glyph unicode="&#xa1;" horiz-adv-x="308" d="M117 -253q-1 -14 -14 -16l-53 2q-18 1 -18 7q0 7 1 8l135 507h28zM162 388q8 35 20 50t41 15q31 0 31 -55q0 -20 -17.5 -37t-37.5 -17q-37 0 -37 44z" />
<glyph unicode="&#xa2;" horiz-adv-x="295" d="M144 36l75 356q-59 -24 -94 -185q-13 -60 -13 -101q0 -49 32 -70zM292 440q40 0 40 -48q0 -29 -17 -29t-37 14q-20 13 -28 16l-79 -367h6q28 0 50 16q11 7 30 22t32 23l10 -13q-38 -38 -67 -58q-28 -19 -68 -27l-36 -165h-29l34 163q-95 2 -95 105q0 120 56 212 q58 93 133 124l25 119h30l-23 -109q22 2 33 2z" />
<glyph unicode="&#xa3;" horiz-adv-x="726" d="M85 -231q-20 0 -28 6t-8 24q0 49 97 86q29 18 37 30q36 61 72 152h-135l7 32h141l128 307q68 161 154 228q70 54 155 54q54 0 54 -44q0 -13 -9 -22t-22 -9q-19 0 -40 21q-23 21 -43 21q-36 0 -58 -16q-21 -16 -44 -52q-44 -94 -209 -488h155l-7 -32h-161 q-45 -106 -105 -163q8 0 13 1h35q43 0 90.5 -15t78.5 -37q61 -45 119 -45q25 0 48 23t23 40q0 23 -14 54q-14 30 -14 42q0 33 33 33h2q20 0 31 -17t11 -43q0 -69 -51 -120q-51 -53 -123 -53q-50 0 -110 39q-64 43 -79 51q-25 15 -39 18.5t-46 3.5q-16 0 -27.5 -4t-17 -8.5 t-15.5 -15.5q-6 -6 -20 -27q-37 -55 -59 -55z" />
<glyph unicode="&#xa4;" d="M136 333q0 -50 36.5 -87.5t86.5 -37.5t87.5 37.5t37.5 87.5q0 51 -37 87t-88 36q-50 0 -86.5 -36.5t-36.5 -86.5zM365 197q-47 -36 -107 -36t-109 39l-93 -94l-31 31l95 94q-32 46 -32 103q0 59 37 103l-95 97l31 30l96 -96q47 35 102 35q57 0 102 -33l95 95l30 -30 l-95 -96q41 -49 41 -105t-36 -106l91 -92l-30 -31z" />
<glyph unicode="&#xa5;" horiz-adv-x="724" d="M392 79q0 -29 23 -44t59 -15h23q9 0 9 -7v-7q0 -6 -8 -6h-305q-10 0 -10 7v6q0 6 10 7h29q36 0 58 22q23 23 26 42l13 65h-131q-10 0 -10 10l2 14q2 12 11 12h136q11 60 14 81h-128q-10 0 -10 9l2 15q1 12 11 12h114q-1 3 -35.5 83t-67 154.5t-36.5 81.5q-26 47 -53 47 q-15 0 -15 7v6q0 5 9 7h215q9 0 9 -7v-6q0 -6 -7 -7h-19q-16 0 -27.5 -10.5t-11.5 -27.5q0 -9 11 -36q12 -27 47.5 -111t47.5 -111q4 -8 7.5 -15.5t5 -11t1.5 -4.5q10 -27 29 -3q27 33 71 84.5t67 79.5q39 46 60 72q22 25 25 35q4 9 4 23q0 15 -11.5 25.5t-27.5 10.5h-18 q-10 0 -10 7v7q0 7 10 6h181q7 0 7 -5v-7q0 -3 -1.5 -5t-3 -2.5t-6 -1.5t-6.5 -2q-10 -1 -19 -7q-22 -14 -76 -80q-37 -45 -117 -138.5t-116 -137.5h130q10 0 10 -10l-3 -14q-2 -12 -10 -12h-151q-3 -14 -9 -40.5t-8 -40.5h146q10 0 10 -10l-3 -14q-1 -12 -10 -12h-151 l-10 -51q-2 -14 -2 -19z" />
<glyph unicode="&#xa6;" horiz-adv-x="278" d="M206 350v-367h-60v367h60zM206 803v-366h-60v366h60z" />
<glyph unicode="&#xa7;" horiz-adv-x="503" d="M314 -135q75 75 75 224q0 85 -64 220q-86 184 -90 193q-28 82 -28 132q-78 -105 -78 -198q0 -96 58 -228q11 -25 48.5 -106t47.5 -104q26 -59 31 -133zM557 698q0 -15 -16.5 -25.5t-38.5 -10.5q-20 0 -38 20q-2 2 -11 14t-14 17t-14 13.5t-18 12t-19 3.5q-33 0 -54 -8 q-17 -7 -55 -33q-32 -35 -32 -66q0 -53 24 -94q9 -27 44 -93q62 -114 92 -196q29 -79 29 -151q0 -160 -95 -259.5t-250 -119.5q-35 0 -67 12.5t-48 31.5q-13 14 -13 27q0 20 14 32t34 12q19 0 27 -4t17 -16q12 -14 16 -20q30 -40 58 -40q52 0 98 31.5t46 77.5q0 35 -10 59 q-19 48 -69 146.5t-60 119.5q-52 116 -52 203q0 88 43 177q70 142 200 190q41 16 76 16h4q58 0 105 -19.5t47 -59.5z" />
<glyph unicode="&#xa8;" horiz-adv-x="362" d="M224 614q0 -18 -13 -33t-30 -15q-24 0 -39 13t-15 35t14 36t39 14q18 0 31 -15.5t13 -34.5zM399 614q0 -18 -13 -33t-30 -15q-24 0 -39 13t-15 35q0 23 14.5 36.5t39.5 13.5q18 0 30.5 -15.5t12.5 -34.5z" />
<glyph unicode="&#xa9;" horiz-adv-x="838" d="M434 577q-90 0 -140 -56t-50 -149q0 -91 54 -157q55 -66 149 -66q95 0 158 105q0 2 4 2h4q7 0 2 -11l-45 -98q-2 -1 -5 -1t-8.5 1t-7.5 1q-11 0 -24 -4q-81 -18 -115 -18q-42 0 -86.5 18.5t-74.5 44.5q-74 65 -74 169q0 106 72 173q73 68 179 68q30 0 71.5 -8t61.5 -17 q9 -4 12 -4q1 0 12 3h9q4 0 4 -6v-99q0 -3 -5 -3q-3 0 -5.5 1.5t-3.5 3.5l-3 6t-3 5q-50 96 -142 96zM415 678q-116 0 -199.5 -68.5t-112.5 -170.5q-12 -42 -12 -86q0 -87 44 -163q40 -70 114 -115.5t166 -45.5q133 0 230 95q60 60 83 143q12 42 12 86q0 87 -45 164 q-40 69 -114 115t-166 46zM44 353q0 107 52 190.5t133 131.5q86 50 187 50q106 0 189.5 -52t131.5 -133q50 -88 50 -187q0 -106 -52 -189.5t-133 -132.5q-86 -50 -186 -50q-106 0 -190 52.5t-132 133.5q-50 86 -50 186z" />
<glyph unicode="&#xaa;" horiz-adv-x="272" d="M217 516q0 4 -11 4q-28 0 -58 -15q-53 -27 -68 -90q-8 -35 -8 -49q0 -18 1.5 -27.5t7.5 -16.5t17 -7q22 10 89 67zM227 319q2 0 17 11t16 11q5 0 5 -5t-34 -30q-32 -25 -42 -25q-15 0 -15 26q0 9 3.5 26t3.5 23q0 4 -1 4q-3 0 -16 -10q-46 -40 -68 -55q-19 -13 -30 -13 q-16 0 -25.5 22t-9.5 47q0 65 49.5 118t112.5 74q33 10 69 10q5 0 5 -7l-46 -203q0 -2 -1 -6.5t-1 -6.5q0 -11 8 -11z" />
<glyph unicode="&#xab;" horiz-adv-x="396" d="M401 453l-136 -183l62 -183h-24l-107 183l182 183h23zM254 453l-136 -183l61 -183h-24l-106 183l182 183h23z" />
<glyph unicode="&#xac;" horiz-adv-x="563" d="M551 336v-248h-62v186h-360v62h422z" />
<glyph unicode="&#xad;" horiz-adv-x="445" d="M420 283l-15 -75h-344l16 75h343z" />
<glyph unicode="&#xae;" horiz-adv-x="831" d="M476 458q0 48 -30 74.5t-81 26.5q-30 0 -30 -6v-178q0 -10 1.5 -12.5t9.5 -3.5q5 -1 31 -1q99 0 99 100zM413 574q51 -4 86.5 -38t35.5 -84q0 -62 -70 -93q4 -6 36.5 -60t45.5 -73q38 -54 61 -62l11 -5v-3q0 -7 -10 -7q-41 0 -87 31q-24 29 -34 44l-75 118q-1 1 -2 1 l-69 3h-2q-4 0 -5 -4v-135q0 -30 31 -34q33 -5 35 -5q4 0 4 -2v-7q0 -1 -3 -3h-180q-2 0 -2 6v4q0 2 2 2l27 4q30 8 29 34v310q0 39 -46 42h-11q-2 0 -2 2v7q0 2 4 2l30 1q13 0 59 2t71 2h30zM415 678q-116 0 -199.5 -68.5t-112.5 -170.5q-12 -42 -12 -86q0 -87 44 -163 q40 -70 114 -115.5t166 -45.5q133 0 230 95q60 60 83 143q12 42 12 86q0 87 -45 164q-40 69 -114 115t-166 46zM44 353q0 107 52 190.5t133 131.5q86 50 187 50q106 0 189.5 -52t131.5 -133q50 -88 50 -187q0 -106 -52 -189.5t-133 -132.5q-86 -50 -186 -50 q-106 0 -190 52.5t-132 133.5q-50 86 -50 186z" />
<glyph unicode="&#xaf;" horiz-adv-x="373" d="M133 638h306l-13 -48h-306z" />
<glyph unicode="&#xb0;" horiz-adv-x="321" d="M351 562q0 -46 -33 -79.5t-79 -33.5t-79 33.5t-33 79.5t33 78.5t79 32.5t79 -32.5t33 -78.5zM239 636q-32 0 -54 -22t-22 -53t22.5 -54t53.5 -23t53.5 23t22.5 54t-22 53t-54 22z" />
<glyph unicode="&#xb1;" horiz-adv-x="567" d="M129 62h426v-62h-426v62zM129 336h182v180h65v-180h179v-62h-179v-184h-65v184h-182v62z" />
<glyph unicode="&#xb2;" horiz-adv-x="322" d="M222 673q47 0 74 -23.5t27 -69.5q0 -45 -35 -83q-34 -36 -118 -92q-37 -26 -81 -62q-39 -31 -39 -34h173q22 0 31 9q10 10 25 40h12l-30 -79q-5 -6 -10 -9h-256v6q0 8 19 24q38 34 104 84q73 57 110 96q38 43 38 77q0 36 -19.5 58.5t-53.5 22.5q-33 0 -58 -17 q-22 -16 -32.5 -28t-22.5 -34q-5 -9 -13 -9q-5 0 -5 3q16 48 60 84t100 36z" />
<glyph unicode="&#xb3;" horiz-adv-x="322" d="M274 590q0 22 -14 36.5t-37 14.5q-51 0 -104 -60q-6 0 -9 1t-2 3v1q36 59 100 81q18 6 46 6q25 0 47 -13.5t22 -34.5q0 -60 -74 -102q-15 -9 -16 -10q9 0 11 1h3q32 0 53 -22.5t21 -53.5q0 -48 -33 -90q-26 -32 -71 -59t-87 -27q-64 0 -89 22q-12 10 -13 24q5 20 30 20 q7 0 14 -7q3 -3 9.5 -8.5t9.5 -8.5q29 -24 58 -24q49 4 85 49q35 46 35 92q0 27 -14.5 44t-41.5 17q-23 0 -36 -8t-15 -8q-3 0 -3 4q0 6 15 14q45 26 73 54q27 27 27 52z" />
<glyph unicode="&#xb4;" horiz-adv-x="341" d="M223 709q18 0 27.5 -11.5t9.5 -29.5t-27 -41l-131 -106q-1 -1 -4 -1q-2 0 -3 1l-11 14q-2 2 -2 3t2 3l104 144q18 24 35 24z" />
<glyph unicode="&#xb5;" horiz-adv-x="502" d="M425 420q0 7 4.5 13t9.5 6h1h45q11 -2 11 -14l-70 -329q0 -2 -0.5 -6t-1.5 -6q0 -28 37 -28l29 2q2 0 2 -4q0 -7 -10 -11l-141 -53q-6 -3 -9 -3q-4 0 -4 3q0 2 11 55q0 2 -2 2q-4 0 -32 -13q-47 -25 -53 -28q-38 -19 -84 -19q-30 0 -59 7l-60 -285q-41 -21 -56 -21 q-13 0 -13 16q0 11 10 52q3 14 9 46t10 49l123 578q1 7 2 8.5t7 1.5h58q5 0 5 -2t-2 -8l-67 -317q-1 -2 -1 -7v-5q0 -32 25.5 -48t63.5 -16q72 0 132 57z" />
<glyph unicode="&#xb6;" horiz-adv-x="532" d="M98 564q0 63 19 107t49.5 69.5t83 40t104.5 18.5t128 4h21h104q11 0 11 -5q-5 -26 -8 -28q-1 0 -4.5 -0.5t-6.5 -0.5h-65l-184 -885q-2 -9 -10 -9h-27q-6 0 -6 5l184 886h-81l-182 -874q-4 -17 -12 -17h-27q-5 0 -5 7q0 6 114 552q-66 3 -102.5 12.5t-65.5 34.5 q-32 26 -32 83z" />
<glyph unicode="&#xb7;" horiz-adv-x="317" d="M156 330q0 26 19 45.5t44 19.5q24 0 44 -18t20 -40q0 -31 -17 -50t-46 -19q-27 0 -40 13q-24 23 -24 49z" />
<glyph unicode="&#xb8;" horiz-adv-x="365" d="M175 -162q0 24 -17.5 39.5t-41.5 17.5l22 99h30l-15 -69q74 -20 74 -83q0 -19 -14 -39q-38 -51 -142 -63q-27 0 -27 20q0 10 18 13q69 14 78 19q35 16 35 46z" />
<glyph unicode="&#xb9;" horiz-adv-x="322" d="M223 622q-78 -48 -93 -51q-1 0 -3 5q-1 3 8 8q55 30 121 89h17q5 0 5 -2v-3l-77 -351q-3 -9 -3 -21q0 -15 61 -15q2 0 2 -1l-2 -8q0 -2 -3 -2h-185q-1 0 -1 2.5t1.5 5.5t2.5 3q31 1 46 3q18 0 24.5 5t10.5 21z" />
<glyph unicode="&#xba;" horiz-adv-x="291" d="M84 380q0 -29 12 -52.5t35 -23.5q41 0 68 48q26 49 26 102q0 28 -11.5 53t-32.5 25q-58 0 -85 -87q-12 -35 -12 -65zM89 282q-17 0 -34 32.5t-17 56.5q0 49 28 94q24 36 65 62t88 26q20 0 36 -33t16 -60q0 -53 -28 -94q-24 -34 -66 -59t-88 -25z" />
<glyph unicode="&#xbb;" horiz-adv-x="453" d="M161 453l106 -183l-182 -183h-24l137 183l-60 183h23zM308 453l106 -183l-182 -183h-24l137 183l-60 183h23z" />
<glyph unicode="&#xbc;" horiz-adv-x="830" d="M731 147q5 0 8 6q4 19 14 68.5t17 76.5q5 15 5 21v2q0 5 -5 5t-11 -6l-152 -165q-8 -8 5 -8h119zM704 -8q25 116 25 121q0 2 -11 2h-153q-6 0 -6 3q0 6 3 9l250 269q6 6 16 6q9 0 9 -5l-54 -248q0 -2 5 -2h51q9 0 9 -4l-4 -21q-1 -7 -8 -7h-56q-5 0 -6 -6l-26 -115 q0 -6 -6 -6h-33q-5 0 -5 4zM284 622q-78 -48 -93 -51q-1 0 -3 5q-1 3 8 8q55 30 121 89h17q5 0 5 -2v-3l-77 -351q-3 -9 -3 -21q0 -15 61 -15q2 0 2 -1l-2 -8q0 -2 -3 -2h-185q-1 0 -1 2.5t1.5 5.5t2.5 3q29 1 47 3q17 0 23.5 5t10.5 21zM833 731h63l-687 -758h-63z" />
<glyph unicode="&#xbd;" horiz-adv-x="830" d="M769 404q47 0 74 -23.5t27 -69.5q0 -45 -35 -83q-34 -36 -118 -92q-37 -26 -81 -62q-39 -32 -39 -34h173q22 0 31 10q10 8 25 39h12l-30 -79q-5 -6 -10 -9h-256v6q0 8 19 24q38 34 104 84q74 58 109 96q39 42 39 77q0 36 -19.5 58.5t-53.5 22.5q-33 0 -58 -17 q-22 -16 -32.5 -28t-22.5 -34q-5 -9 -13 -9q-5 0 -5 3q16 48 60.5 84t99.5 36zM284 622q-78 -48 -93 -51q-1 0 -3 5q-1 3 8 8q55 30 121 89h17q5 0 5 -2v-3l-77 -351q-3 -9 -3 -21q0 -15 61 -15q2 0 2 -1l-2 -8q0 -2 -3 -2h-185q-1 0 -1 2.5t1.5 5.5t2.5 3q29 1 47 3 q17 0 23.5 5t10.5 21zM833 731h63l-687 -758h-63z" />
<glyph unicode="&#xbe;" horiz-adv-x="830" d="M731 147q5 0 8 6q4 19 14 68.5t17 76.5q5 15 5 21v2q0 5 -5 5t-11 -6l-152 -165q-8 -8 5 -8h119zM704 -8q25 116 25 121q0 2 -11 2h-153q-6 0 -6 3q0 6 3 9l250 269q6 6 16 6q9 0 9 -5l-54 -248q0 -2 5 -2h51q9 0 9 -4l-4 -21q-1 -7 -8 -7h-56q-5 0 -6 -6l-26 -115 q0 -6 -6 -6h-33q-5 0 -5 4zM342 590q0 22 -14 36.5t-37 14.5q-52 0 -104 -60q-6 0 -9 1t-2 3v1q36 59 100 81q18 6 46 6q25 0 47 -13.5t22 -34.5q0 -60 -74 -102q-15 -9 -16 -10q9 0 11 1h3q32 0 53 -22.5t21 -53.5q0 -48 -33 -90q-26 -32 -71 -59t-87 -27q-64 0 -89 22 q-12 10 -13 24q5 20 30 20q7 0 14 -7q3 -3 9.5 -8.5t9.5 -8.5q29 -24 58 -24q49 4 85 49q35 46 35 92q0 27 -14.5 44t-41.5 17q-23 0 -36 -8t-15 -8q-3 0 -3 4q0 6 15 14q45 26 73 54q27 27 27 52zM833 731h63l-687 -758h-63z" />
<glyph unicode="&#xbf;" horiz-adv-x="423" d="M298 388q8 35 19.5 50t40.5 15q31 0 31 -55q0 -20 -17 -37t-37 -17q-37 0 -37 44zM210 -181q8 0 36.5 9.5t35.5 9.5q21 0 21 -36q0 -50 -55 -54q-6 -1 -19.5 -1.5t-20.5 -0.5h-2q-54 0 -97 49q-41 47 -41 104q0 76 26.5 116t83.5 73q41 24 68 43q36 25 55 107q6 26 8 32 h19q0 -134 -38 -184q-30 -41 -89 -74q-60 -32 -77 -56q-18 -24 -18 -50q0 -43 32 -66q32 -21 72 -21z" />
<glyph unicode="&#xc0;" horiz-adv-x="760" d="M500 912q0 18 10 29t27 11t35 -24l104 -144q2 -2 2 -3t-2 -3l-11 -14q-2 -2 -3 -2t-3 2l-132 106q-27 22 -27 42zM505 331q24 0 24 24l-6 219q0 13 -4 13q-5 0 -15 -13q-18 -25 -77.5 -101.5t-68.5 -88.5q-22 -29 -30 -41q-5 -8 -5 -9q0 -3 2 -3h180zM236 14 q-1 -6 -1.5 -7.5t-1.5 -3.5t-3 -2.5t-6 -0.5h-224q-10 0 -10 6q0 14 10 14h11q19 0 29 7q7 6 34 39q71 93 225 293t230 300q18 23 23 27q8 6 19 6h13q22 0 22 -26l15 -593q1 -23 19.5 -38t46.5 -15h9h22q6 0 6 -8v-5q0 -7 -7 -7h-303q-7 0 -7 5v10q0 5 12 5q48 0 73.5 9.5 t35.5 40.5q6 20 6 53l-3 141v8q0 20 -26 22h-196q-20 0 -32 -17q-17 -23 -54 -70.5t-38 -49.5q-12 -16 -37 -51q-9 -18 -9 -38q0 -23 19.5 -35.5t47.5 -12.5h23q5 0 7 -6z" />
<glyph unicode="&#xc1;" horiz-adv-x="797" d="M644 952q18 0 27.5 -11.5t9.5 -29.5q0 -19 -27 -41l-131 -106q-1 -1 -4 -1q-2 0 -3 1l-11 14q-2 2 -2 3t2 3l104 144q18 24 35 24zM505 331q24 0 24 24l-6 219q0 13 -4 13q-5 0 -15 -13q-18 -25 -77.5 -101.5t-68.5 -88.5q-22 -29 -30 -41q-5 -8 -5 -9q0 -3 2 -3h180z M236 14q-1 -6 -1.5 -7.5t-1.5 -3.5t-3 -2.5t-6 -0.5h-224q-10 0 -10 6q0 14 10 14h11q19 0 29 7q7 6 34 39q71 93 225 293t230 300q18 23 23 27q8 6 19 6h13q22 0 22 -26l15 -593q1 -23 19.5 -38t46.5 -15h9h22q6 0 6 -8v-5q0 -7 -7 -7h-303q-7 0 -7 5v10q0 5 12 5 q48 0 73.5 9.5t35.5 40.5q6 20 6 53l-3 141v8q0 20 -26 22h-196q-20 0 -32 -17q-17 -23 -54 -70.5t-38 -49.5q-12 -16 -37 -51q-9 -18 -9 -38q0 -23 19.5 -35.5t47.5 -12.5h23q5 0 7 -6z" />
<glyph unicode="&#xc2;" horiz-adv-x="760" d="M503 763h-24l122 188h52l14 -189h-24l-32 121zM505 331q24 0 24 24l-6 219q0 13 -4 13q-5 0 -15 -13q-18 -25 -77.5 -101.5t-68.5 -88.5q-22 -29 -30 -41q-5 -8 -5 -9q0 -3 2 -3h180zM236 14q-1 -6 -1.5 -7.5t-1.5 -3.5t-3 -2.5t-6 -0.5h-224q-10 0 -10 6q0 14 10 14h11 q19 0 29 7q7 6 34 39q71 93 225 293t230 300q18 23 23 27q8 6 19 6h13q22 0 22 -26l15 -593q1 -23 19.5 -38t46.5 -15h9h22q6 0 6 -8v-5q0 -7 -7 -7h-303q-7 0 -7 5v10q0 5 12 5q48 0 73.5 9.5t35.5 40.5q6 20 6 53l-3 141v8q0 20 -26 22h-196q-20 0 -32 -17 q-17 -23 -54 -70.5t-38 -49.5q-12 -16 -37 -51q-9 -18 -9 -38q0 -23 19.5 -35.5t47.5 -12.5h23q5 0 7 -6z" />
<glyph unicode="&#xc3;" horiz-adv-x="760" d="M433 831q0 37 20.5 67t51.5 30q30 0 67 -17q35 -18 55 -26q21 -8 33 -8q20 0 30.5 17t10.5 40q0 7 8 7h9q7 0 7 -18q0 -35 -21.5 -61.5t-53.5 -26.5t-64 17q-45 22 -51 25q-19 8 -31 8q-20 0 -34.5 -20.5t-14.5 -42.5q0 -6 -8 -6h-10q-4 0 -4 15zM505 331q24 0 24 24 l-6 219q0 13 -4 13q-5 0 -15 -13q-18 -25 -77.5 -101.5t-68.5 -88.5q-22 -29 -30 -41q-5 -8 -5 -9q0 -3 2 -3h180zM236 14q-1 -6 -1.5 -7.5t-1.5 -3.5t-3 -2.5t-6 -0.5h-224q-10 0 -10 6q0 14 10 14h11q19 0 29 7q7 6 34 39q71 93 225 293t230 300q18 23 23 27q8 6 19 6h13 q22 0 22 -26l15 -593q1 -23 19.5 -38t46.5 -15h9h22q6 0 6 -8v-5q0 -7 -7 -7h-303q-7 0 -7 5v10q0 5 12 5q48 0 73.5 9.5t35.5 40.5q6 20 6 53l-3 141v8q0 20 -26 22h-196q-20 0 -32 -17q-17 -23 -54 -70.5t-38 -49.5q-12 -16 -37 -51q-9 -18 -9 -38q0 -23 19.5 -35.5 t47.5 -12.5h23q5 0 7 -6z" />
<glyph unicode="&#xc4;" horiz-adv-x="760" d="M540 894q0 -19 -13 -34t-30 -15q-24 0 -39 13t-15 35t14 36t40 14q17 0 30 -15.5t13 -33.5zM715 893q0 -18 -13 -33t-30 -15q-24 0 -39 13t-15 35q0 23 14.5 36.5t40.5 13.5q17 0 29.5 -15.5t12.5 -34.5zM505 331q24 0 24 24l-6 219q0 13 -4 13q-5 0 -15 -13 q-18 -25 -77.5 -101.5t-68.5 -88.5q-22 -29 -30 -41q-5 -8 -5 -9q0 -3 2 -3h180zM236 14q-1 -6 -1.5 -7.5t-1.5 -3.5t-3 -2.5t-6 -0.5h-224q-10 0 -10 6q0 14 10 14h11q19 0 29 7q7 6 34 39q71 93 225 293t230 300q18 23 23 27q8 6 19 6h13q22 0 22 -26l15 -593 q1 -23 19.5 -38t46.5 -15h9h22q6 0 6 -8v-5q0 -7 -7 -7h-303q-7 0 -7 5v10q0 5 12 5q48 0 73.5 9.5t35.5 40.5q6 20 6 53l-3 141v8q0 20 -26 22h-196q-20 0 -32 -17q-17 -23 -54 -70.5t-38 -49.5q-12 -16 -37 -51q-9 -18 -9 -38q0 -23 19.5 -35.5t47.5 -12.5h23q5 0 7 -6z " />
<glyph unicode="&#xc5;" horiz-adv-x="760" d="M640 879q0 21 -15 38.5t-34 17.5q-59 0 -62 -61q0 -19 17.5 -34.5t38.5 -15.5q23 0 39 16t16 39zM583 789q-37 0 -64 26t-27 63t27 64t64 27t63.5 -27t26.5 -63q0 -37 -26.5 -63.5t-63.5 -26.5zM505 331q24 0 24 24l-6 219q0 13 -4 13q-5 0 -15 -13q-18 -25 -77.5 -101.5 t-68.5 -88.5q-22 -29 -30 -41q-5 -8 -5 -9q0 -3 2 -3h180zM236 14q-1 -6 -1.5 -7.5t-1.5 -3.5t-3 -2.5t-6 -0.5h-224q-10 0 -10 6q0 14 10 14h11q19 0 29 7q7 6 34 39q71 93 225 293t230 300q18 23 23 27q8 6 19 6h13q22 0 22 -26l15 -593q1 -23 19.5 -38t46.5 -15h9h22 q6 0 6 -8v-5q0 -7 -7 -7h-303q-7 0 -7 5v10q0 5 12 5q48 0 73.5 9.5t35.5 40.5q6 20 6 53l-3 141v8q0 20 -26 22h-196q-20 0 -32 -17q-17 -23 -54 -70.5t-38 -49.5q-12 -16 -37 -51q-9 -18 -9 -38q0 -23 19.5 -35.5t47.5 -12.5h23q5 0 7 -6z" />
<glyph unicode="&#xc6;" horiz-adv-x="1029" d="M576 626q0 17 -10 17q-6 0 -11 -5q-1 -1 -15 -19q-150 -196 -225 -293q-4 -4 -4 -9q0 -4 9 -4h172q18 0 21 14l61 283q2 10 2 16zM553 85q0 -19 8 -31t25 -17t32.5 -6.5t42.5 -1.5q38 0 83 3q59 4 94 20.5t69 52.5q5 5 43 47q9 9 19 9t10 -9q0 -6 -12 -34 q-8 -17 -20.5 -54t-13.5 -39q-5 -14 -11 -19.5t-21 -5.5h-532q-3 0 -4 4l3 12q1 4 12 4q38 0 56.5 16t25.5 53l40 188h-205q-10 0 -19.5 -6t-13.5 -10.5t-12.5 -17t-9.5 -13.5q-2 -3 -28 -36t-38.5 -50.5t-26.5 -44.5t-14 -44q0 -35 47 -35h30q6 0 6 -6v-7q0 -7 -10 -7h-208 q-8 0 -10 6v5q0 9 8 9h13q14 0 24.5 5t14 9t14.5 18q82 105 236.5 308.5t185.5 243.5q23 31 46 59q-21 6 -52 6q-3 0 -3 4l2 12q1 3 4 3h1h512q24 0 24 -10q0 -4 -2 -22q0 -4 -2 -17t-6.5 -43t-8.5 -57q-1 -7 -11 -7q-13 0 -13 28q0 44 -24.5 73t-66.5 29h-179 q-27 0 -32.5 -4t-10.5 -28l-51 -244q-1 -3 -1 -6q0 -12 20 -12h180q61 0 100 70q3 6 8 6h9q4 0 4 -3v-5l-39 -182q-1 -10 -9 -10q-7 0 -8.5 1.5t-2.5 8.5q-1 4 -1 14q0 63 -77 63h-176q-18 0 -26 -34q-4 -17 -16.5 -77t-18.5 -86q-6 -28 -6 -49z" />
<glyph unicode="&#xc7;" horiz-adv-x="747" d="M368 -161q0 23 -23.5 37.5t-50.5 18.5l76 93q-129 13 -214 80q-102 82 -102 236q0 122 70 213t174 141q108 51 220 51q104 0 197 -29q57 -20 57 -46q0 -36 -15 -82q-15 -45 -20 -56q-4 -11 -13 -11q-6 0 -8 8q-2 69 -16 95q-19 37 -65 64t-97 27q-99 0 -191 -54 q-88 -51 -145 -138t-57 -201q0 -109 73 -190q75 -81 195 -81q77 0 143 48q65 50 87 108q7 22 25 22q12 0 12 -8q0 -5 -2.5 -15.5t-2.5 -13.5q-3 -15 -13 -59.5t-14 -64.5q-3 -15 -5 -18.5t-9 -3.5l-40 6q-34 0 -86 -15q-51 -16 -82 -16l-9 1l-53 -61q35 -9 52 -32 q17 -25 17 -42q-7 -94 -163 -111q-27 0 -27 21q0 12 25 16q22 4 34.5 7t30.5 9.5t26.5 18t8.5 27.5z" />
<glyph unicode="&#xc8;" horiz-adv-x="664" d="M386 911q0 18 10 29.5t27 11.5t35 -24l104 -144q2 -2 2 -3t-2 -3l-11 -14q-2 -2 -3 -2t-3 2l-132 106q-27 22 -27 41zM209 624q0 23 -29.5 34t-64.5 11q-3 0 -3 4l2 12q1 4 5 3h511q24 0 24 -10q0 -4 -2 -22q0 -3 -2 -17.5t-6 -42t-8 -57.5q-1 -7 -12 -7q-13 0 -13 27 q0 44 -24 73.5t-66 29.5h-180q-27 0 -32.5 -4t-10.5 -28l-51 -244q-1 -3 -1 -6q0 -12 21 -12h179q32 0 58.5 21t41.5 49q3 6 9 6h8q4 0 4 -4v-4l-39 -182q-1 -10 -9 -10q-7 0 -8.5 1.5t-2.5 7.5q-1 5 -1 15q0 63 -76 63h-177q-20 0 -26 -34q-2 -14 -21 -97 q-2 -12 -7.5 -36.5t-8.5 -43t-3 -35.5q0 -34 24 -44.5t75 -10.5q77 0 125.5 6t79.5 27q15 10 30.5 24.5t38 38t24.5 25.5q9 10 19 10t10 -9q0 -7 -13 -34q-8 -18 -20 -54.5t-13 -39.5q-6 -13 -12 -18.5t-20 -5.5h-533q-3 0 -3 4l2 12q1 4 12 4q38 0 56.5 16t26.5 53 q8 39 43.5 202.5t54.5 252.5q11 52 12 59q2 14 2 21z" />
<glyph unicode="&#xc9;" horiz-adv-x="664" d="M519 952q18 0 27.5 -11.5t9.5 -29.5q0 -19 -27 -41l-131 -106q-1 -1 -4 -1q-2 0 -3 1l-11 14q-2 2 -2 3t2 3l104 144q18 24 35 24zM209 624q0 23 -29.5 34t-64.5 11q-3 0 -3 4l2 12q1 4 5 3h511q24 0 24 -10q0 -4 -2 -22q0 -3 -2 -17.5t-6 -42t-8 -57.5q-1 -7 -12 -7 q-13 0 -13 27q0 44 -24 73.5t-66 29.5h-180q-27 0 -32.5 -4t-10.5 -28l-51 -244q-1 -3 -1 -6q0 -12 21 -12h179q32 0 58.5 21t41.5 49q3 6 9 6h8q4 0 4 -4v-4l-39 -182q-1 -10 -9 -10q-7 0 -8.5 1.5t-2.5 7.5q-1 5 -1 15q0 63 -76 63h-177q-20 0 -26 -34q-2 -14 -21 -97 q-2 -12 -7.5 -36.5t-8.5 -43t-3 -35.5q0 -34 24 -44.5t75 -10.5q77 0 125.5 6t79.5 27q15 10 30.5 24.5t38 38t24.5 25.5q9 10 19 10t10 -9q0 -7 -13 -34q-8 -18 -20 -54.5t-13 -39.5q-6 -13 -12 -18.5t-20 -5.5h-533q-3 0 -3 4l2 12q1 4 12 4q38 0 56.5 16t26.5 53 q8 39 43.5 202.5t54.5 252.5q11 52 12 59q2 14 2 21z" />
<glyph unicode="&#xca;" horiz-adv-x="664" d="M373 774h-24l122 188h52l14 -189h-24l-32 121zM209 624q0 23 -29.5 34t-64.5 11q-3 0 -3 4l2 12q1 4 5 3h511q24 0 24 -10q0 -4 -2 -22q0 -3 -2 -17.5t-6 -42t-8 -57.5q-1 -7 -12 -7q-13 0 -13 27q0 44 -24 73.5t-66 29.5h-180q-27 0 -32.5 -4t-10.5 -28l-51 -244 q-1 -3 -1 -6q0 -12 21 -12h179q32 0 58.5 21t41.5 49q3 6 9 6h8q4 0 4 -4v-4l-39 -182q-1 -10 -9 -10q-7 0 -8.5 1.5t-2.5 7.5q-1 5 -1 15q0 63 -76 63h-177q-20 0 -26 -34q-2 -14 -21 -97q-2 -12 -7.5 -36.5t-8.5 -43t-3 -35.5q0 -34 24 -44.5t75 -10.5q77 0 125.5 6 t79.5 27q15 10 30.5 24.5t38 38t24.5 25.5q9 10 19 10t10 -9q0 -7 -13 -34q-8 -18 -20 -54.5t-13 -39.5q-6 -13 -12 -18.5t-20 -5.5h-533q-3 0 -3 4l2 12q1 4 12 4q38 0 56.5 16t26.5 53q8 39 43.5 202.5t54.5 252.5q11 52 12 59q2 14 2 21z" />
<glyph unicode="&#xcb;" horiz-adv-x="664" d="M417 893q0 -18 -13 -33t-30 -15q-24 0 -39 13t-15 35t14 36t39 14q18 0 31 -15.5t13 -34.5zM592 893q0 -18 -13 -33t-30 -15q-24 0 -39 13t-15 35q0 23 14.5 36.5t39.5 13.5q18 0 30.5 -15.5t12.5 -34.5zM209 624q0 23 -29.5 34t-64.5 11q-3 0 -3 4l2 12q1 4 5 3h511 q24 0 24 -10q0 -4 -2 -22q0 -3 -2 -17.5t-6 -42t-8 -57.5q-1 -7 -12 -7q-13 0 -13 27q0 44 -24 73.5t-66 29.5h-180q-27 0 -32.5 -4t-10.5 -28l-51 -244q-1 -3 -1 -6q0 -12 21 -12h179q32 0 58.5 21t41.5 49q3 6 9 6h8q4 0 4 -4v-4l-39 -182q-1 -10 -9 -10q-7 0 -8.5 1.5 t-2.5 7.5q-1 5 -1 15q0 63 -76 63h-177q-20 0 -26 -34q-2 -14 -21 -97q-2 -12 -7.5 -36.5t-8.5 -43t-3 -35.5q0 -34 24 -44.5t75 -10.5q77 0 125.5 6t79.5 27q15 10 30.5 24.5t38 38t24.5 25.5q9 10 19 10t10 -9q0 -7 -13 -34q-8 -18 -20 -54.5t-13 -39.5q-6 -13 -12 -18.5 t-20 -5.5h-533q-3 0 -3 4l2 12q1 4 12 4q38 0 56.5 16t26.5 53q8 39 43.5 202.5t54.5 252.5q11 52 12 59q2 14 2 21z" />
<glyph unicode="&#xcc;" horiz-adv-x="325" d="M191 912q0 18 10 29t27 11t35 -24l104 -144q2 -2 2 -3t-2 -3l-11 -14q-2 -2 -3 -2t-3 2l-132 106q-27 22 -27 42zM188 59q0 -39 91 -39q3 0 3 -4l-3 -12q-1 -4 -4 -4h-262q-3 0 -3 4l2 12q1 4 12 4q39 0 57.5 15.5t25.5 53.5q31 149 61 289t41 192l11 53q0 46 -83 46 q-3 0 -3 4l2 12q1 4 5 3h255q4 0 2 -3l-2 -12q-1 -4 -11 -4q-39 0 -57.5 -16t-26.5 -54l-111 -521q-2 -10 -2 -19z" />
<glyph unicode="&#xcd;" horiz-adv-x="325" d="M359 952q18 0 27.5 -11.5t9.5 -29.5q0 -19 -27 -41l-131 -106q-1 -1 -4 -1q-2 0 -3 1l-11 14q-2 2 -2 3t2 3l104 144q18 24 35 24zM188 59q0 -39 91 -39q3 0 3 -4l-3 -12q-1 -4 -4 -4h-262q-3 0 -3 4l2 12q1 4 12 4q39 0 57.5 15.5t25.5 53.5q31 149 61 289t41 192l11 53 q0 46 -83 46q-3 0 -3 4l2 12q1 4 5 3h255q4 0 2 -3l-2 -12q-1 -4 -11 -4q-39 0 -57.5 -16t-26.5 -54l-111 -521q-2 -10 -2 -19z" />
<glyph unicode="&#xce;" horiz-adv-x="325" d="M214 763h-24l122 188h52l14 -189h-24l-32 121zM188 59q0 -39 91 -39q3 0 3 -4l-3 -12q-1 -4 -4 -4h-262q-3 0 -3 4l2 12q1 4 12 4q39 0 57.5 15.5t25.5 53.5q31 149 61 289t41 192l11 53q0 46 -83 46q-3 0 -3 4l2 12q1 4 5 3h255q4 0 2 -3l-2 -12q-1 -4 -11 -4 q-39 0 -57.5 -16t-26.5 -54l-111 -521q-2 -10 -2 -19z" />
<glyph unicode="&#xcf;" horiz-adv-x="325" d="M271 893q0 -18 -13 -33t-30 -15q-24 0 -39 13t-15 35t14 36t40 14q17 0 30 -15.5t13 -34.5zM446 893q0 -18 -13 -33t-30 -15q-24 0 -39 13t-15 35q0 23 14.5 36.5t40.5 13.5q17 0 29.5 -15.5t12.5 -34.5zM188 59q0 -39 91 -39q3 0 3 -4l-3 -12q-1 -4 -4 -4h-262 q-3 0 -3 4l2 12q1 4 12 4q39 0 57.5 15.5t25.5 53.5q31 149 61 289t41 192l11 53q0 46 -83 46q-3 0 -3 4l2 12q1 4 5 3h255q4 0 2 -3l-2 -12q-1 -4 -11 -4q-39 0 -57.5 -16t-26.5 -54l-111 -521q-2 -10 -2 -19z" />
<glyph unicode="&#xd0;" horiz-adv-x="790" d="M200 108q-1 -3 -1 -16q0 -12 10 -25t36 -28q26 -14 77 -14q47 0 103 17t93 38q179 98 179 326q0 181 -176 238q-72 23 -160 23q-43 0 -48 -26l-59 -275h166q10 0 11 -10l-3 -14q-2 -12 -11 -12h-170zM221 625q0 18 -11 26.5t-23.5 10t-40.5 2.5h-31q-3 0 -4 3l4 17 q0 4 3 4h2h282q131 0 232.5 -50.5t138.5 -141.5q18 -42 18 -97q0 -104 -47 -191q-55 -102 -167 -155t-273 -53h-301q-3 0 -3 4l3 17q2 5 11 3q82 0 94 62l52 244h-92q-5 0 -8 2.5t-2 6.5l3 15q1 12 10 12h97l50 235q2 11 3 24z" />
<glyph unicode="&#xd1;" horiz-adv-x="837" d="M408 831q0 37 20.5 67t51.5 30q30 0 67 -17q35 -18 55 -26q21 -8 33 -8q20 0 30.5 17t10.5 40q0 7 8 7h9q7 0 7 -18q0 -35 -21.5 -61.5t-53.5 -26.5t-64 17q-45 22 -51 25q-19 8 -31 8q-20 0 -34.5 -20.5t-14.5 -42.5q0 -6 -8 -6h-10q-4 0 -4 15zM110 678q0 10 17 10h2 h122q26 0 38 -5q10 -5 23 -27l339 -497q10 -15 13 -15q4 0 8.5 15t8 37t3.5 24q6 32 27.5 132.5t30.5 143.5q10 40 16 72q6 21 6 39q0 34 -25 53q-11 9 -57 9q-10 0 -12 11q0 8 15 8h215q11 0 11 -9q0 -10 -11 -10h-20q-40 0 -65 -34q-12 -16 -37 -138q-13 -59 -38.5 -184 t-39.5 -186q-9 -40 -18 -87q-3 -21 -9 -34q-3 -6 -10 -6q-12 0 -28 21q-7 8 -13 19q-1 1 -44 67q-202 294 -239 349q-11 16 -29 43t-28 41q-27 40 -33 40q-7 0 -12 -23q-10 -48 -34.5 -163t-34.5 -165q-13 -58 -13 -86q0 -123 74 -123h6q20 0 20 -9v-4q0 -7 -11 -7h-220 q-16 0 -16 10q0 8 4.5 12t15.5 6.5t13 3.5q20 8 41 33.5t26 47.5l103 485q0 3 2.5 13t2.5 16q0 19 -31 31q-25 11 -44 11h-16q-15 0 -15 9z" />
<glyph unicode="&#xd2;" horiz-adv-x="796" d="M411 924q0 18 10 29t27 11t35 -24l104 -144q2 -2 2 -3t-2 -3l-11 -14q-2 -2 -3 -2t-3 2l-132 106q-27 22 -27 42zM158 305q0 -119 63.5 -202t169.5 -83q104 0 175 64q68 59 108.5 154.5t40.5 208.5q0 105 -63 176q-63 70 -185 70q-145 0 -231 -123q-78 -113 -78 -265z M508 15q-52 -15 -105 -15q-97 0 -176 43q-74 40 -120 113t-46 170q0 104 56.5 192t137.5 137q89 54 185 54q181 0 273 -85q94 -84 94 -216q0 -111 -55 -206q-82 -142 -244 -187z" />
<glyph unicode="&#xd3;" horiz-adv-x="796" d="M578 952q18 0 27.5 -11.5t9.5 -29.5q0 -19 -27 -41l-131 -106q-1 -1 -4 -1q-2 0 -3 1l-11 14q-2 2 -2 3t2 3l104 144q18 24 35 24zM158 305q0 -119 63.5 -202t169.5 -83q104 0 175 64q68 59 108.5 154.5t40.5 208.5q0 105 -63 176q-63 70 -185 70q-145 0 -231 -123 q-78 -113 -78 -265zM508 15q-52 -15 -105 -15q-97 0 -176 43q-74 40 -120 113t-46 170q0 104 56.5 192t137.5 137q89 54 185 54q181 0 273 -85q94 -84 94 -216q0 -111 -55 -206q-82 -142 -244 -187z" />
<glyph unicode="&#xd4;" horiz-adv-x="796" d="M428 775h-24l122 188h52l14 -189h-24l-32 121zM158 305q0 -119 63.5 -202t169.5 -83q104 0 175 64q68 59 108.5 154.5t40.5 208.5q0 105 -63 176q-63 70 -185 70q-145 0 -231 -123q-78 -113 -78 -265zM508 15q-52 -15 -105 -15q-97 0 -176 43q-74 40 -120 113t-46 170 q0 104 56.5 192t137.5 137q89 54 185 54q181 0 273 -85q94 -84 94 -216q0 -111 -55 -206q-82 -142 -244 -187z" />
<glyph unicode="&#xd5;" horiz-adv-x="796" d="M374 797q0 37 20.5 67t51.5 30q30 0 67 -17q35 -18 55 -26q21 -8 33 -8q20 0 30.5 17t10.5 40q0 7 8 7h9q7 0 7 -18q0 -35 -21.5 -61.5t-53.5 -26.5t-64 17q-45 22 -51 25q-19 8 -31 8q-20 0 -34.5 -20.5t-14.5 -42.5q0 -6 -8 -6h-10q-4 0 -4 15zM158 305 q0 -119 63.5 -202t169.5 -83q104 0 175 64q68 59 108.5 154.5t40.5 208.5q0 105 -63 176q-63 70 -185 70q-145 0 -231 -123q-78 -113 -78 -265zM508 15q-52 -15 -105 -15q-97 0 -176 43q-74 40 -120 113t-46 170q0 104 56.5 192t137.5 137q89 54 185 54q181 0 273 -85 q94 -84 94 -216q0 -111 -55 -206q-82 -142 -244 -187z" />
<glyph unicode="&#xd6;" horiz-adv-x="796" d="M488 860q0 -19 -13 -34t-30 -15q-24 0 -39 13t-15 35t14 36t39 14q18 0 31 -15.5t13 -33.5zM663 859q0 -18 -13 -33t-30 -15q-24 0 -39 13t-15 35q0 23 14.5 36.5t39.5 13.5q18 0 30.5 -15.5t12.5 -34.5zM158 305q0 -119 63.5 -202t169.5 -83q104 0 175 64 q68 59 108.5 154.5t40.5 208.5q0 105 -63 176q-63 70 -185 70q-145 0 -231 -123q-78 -113 -78 -265zM508 15q-52 -15 -105 -15q-97 0 -176 43q-74 40 -120 113t-46 170q0 104 56.5 192t137.5 137q89 54 185 54q181 0 273 -85q94 -84 94 -216q0 -111 -55 -206 q-82 -142 -244 -187z" />
<glyph unicode="&#xd7;" d="M102 502l154 -154l155 155l43 -43l-155 -155l156 -156l-43 -43l-156 156l-155 -155l-43 43l155 155l-154 154z" />
<glyph unicode="&#xd8;" horiz-adv-x="801" d="M195 143l445 491q-62 59 -173 59q-145 0 -231 -123q-78 -113 -78 -265q0 -94 37 -162zM210 118q66 -98 181 -98q103 0 175 63q68 60 108.5 155.5t40.5 207.5q0 100 -56 168zM153 98q-92 90 -92 228q0 104 56.5 192t137.5 137q89 54 185 54q138 0 224 -49l69 76l20 -18 l-66 -72q57 -40 88.5 -102t31.5 -136q0 -111 -55 -206q-82 -142 -244 -187q-52 -15 -105 -15q-135 0 -229 79l-103 -114l-20 20z" />
<glyph unicode="&#xd9;" horiz-adv-x="790" d="M423 911q0 18 10 29.5t27 11.5t35 -24l104 -144q2 -2 2 -3t-2 -3l-11 -14q-2 -2 -3 -2t-3 2l-132 106q-27 22 -27 41zM410 0q-114 0 -200.5 53t-86.5 144q0 19 35 185q10 47 19.5 91t14.5 67t6 28l8 36q3 16 3 24t-8 18q-20 23 -76 23q-3 0 -2 4l2 12q1 3 4 3h1h254 q3 0 3 -3l-2 -12q-1 -4 -23 -4q-19 0 -42 -13q-20 -16 -29 -57l-76 -351q-5 -25 -5 -52q0 -32 18 -63t42 -52q56 -47 126 -47q223 0 270 215l59 279q8 37 8 61q0 80 -77 80h-14q-10 0 -10 7v5q0 7 9 7h220q7 0 7 -6v-5q0 -3 -3.5 -5t-9 -3l-11 -2t-11.5 -2t-8 -1 q-20 -4 -30 -14.5t-15 -34.5l-15 -70q-6 -27 -29.5 -137.5t-37.5 -176.5q-24 -109 -96.5 -170t-191.5 -61z" />
<glyph unicode="&#xda;" horiz-adv-x="790" d="M596 952q18 0 27.5 -11.5t9.5 -29.5q0 -19 -27 -41l-131 -106q-1 -1 -4 -1q-2 0 -3 1l-11 14q-2 2 -2 3t2 3l104 144q18 24 35 24zM410 0q-114 0 -200.5 53t-86.5 144q0 19 35 185q10 47 19.5 91t14.5 67t6 28l8 36q3 16 3 24t-8 18q-20 23 -76 23q-3 0 -2 4l2 12 q1 3 4 3h1h254q3 0 3 -3l-2 -12q-1 -4 -23 -4q-19 0 -42 -13q-20 -16 -29 -57l-76 -351q-5 -25 -5 -52q0 -32 18 -63t42 -52q56 -47 126 -47q223 0 270 215l59 279q8 37 8 61q0 80 -77 80h-14q-10 0 -10 7v5q0 7 9 7h220q7 0 7 -6v-5q0 -3 -3.5 -5t-9 -3l-11 -2t-11.5 -2 t-8 -1q-20 -4 -30 -14.5t-15 -34.5l-15 -70q-6 -27 -29.5 -137.5t-37.5 -176.5q-24 -109 -96.5 -170t-191.5 -61z" />
<glyph unicode="&#xdb;" horiz-adv-x="790" d="M446 763h-24l122 188h52l14 -189h-24l-32 121zM410 0q-114 0 -200.5 53t-86.5 144q0 19 35 185q10 47 19.5 91t14.5 67t6 28l8 36q3 16 3 24t-8 18q-20 23 -76 23q-3 0 -2 4l2 12q1 3 4 3h1h254q3 0 3 -3l-2 -12q-1 -4 -23 -4q-19 0 -42 -13q-20 -16 -29 -57l-76 -351 q-5 -25 -5 -52q0 -32 18 -63t42 -52q56 -47 126 -47q223 0 270 215l59 279q8 37 8 61q0 80 -77 80h-14q-10 0 -10 7v5q0 7 9 7h220q7 0 7 -6v-5q0 -3 -3.5 -5t-9 -3l-11 -2t-11.5 -2t-8 -1q-20 -4 -30 -14.5t-15 -34.5l-15 -70q-6 -27 -29.5 -137.5t-37.5 -176.5 q-24 -109 -96.5 -170t-191.5 -61z" />
<glyph unicode="&#xdc;" horiz-adv-x="790" d="M496 893q0 -18 -13 -33t-30 -15q-24 0 -39 13t-15 35t14 36t40 14q17 0 30 -15.5t13 -34.5zM671 893q0 -18 -13 -33t-30 -15q-24 0 -39 13t-15 35q0 23 14.5 36.5t40.5 13.5q17 0 29.5 -15.5t12.5 -34.5zM410 0q-114 0 -200.5 53t-86.5 144q0 19 35 185q10 47 19.5 91 t14.5 67t6 28l8 36q3 16 3 24t-8 18q-20 23 -76 23q-3 0 -2 4l2 12q1 3 4 3h1h254q3 0 3 -3l-2 -12q-1 -4 -23 -4q-19 0 -42 -13q-20 -16 -29 -57l-76 -351q-5 -25 -5 -52q0 -32 18 -63t42 -52q56 -47 126 -47q223 0 270 215l59 279q8 37 8 61q0 80 -77 80h-14q-10 0 -10 7 v5q0 7 9 7h220q7 0 7 -6v-5q0 -3 -3.5 -5t-9 -3l-11 -2t-11.5 -2t-8 -1q-20 -4 -30 -14.5t-15 -34.5l-15 -70q-6 -27 -29.5 -137.5t-37.5 -176.5q-24 -109 -96.5 -170t-191.5 -61z" />
<glyph unicode="&#xdd;" horiz-adv-x="724" d="M568 952q18 0 27.5 -11.5t9.5 -29.5q0 -19 -27 -41l-131 -106q-1 -1 -4 -1q-2 0 -3 1l-11 14q-2 2 -2 3t2 3l104 144q18 24 35 24zM392 72q0 -25 24.5 -38.5t57.5 -13.5h23q9 0 9 -7v-7q0 -6 -8 -6h-305q-10 0 -10 7v6q0 6 10 7h29q32 0 56 20.5t30 48.5q5 31 18 96.5 t16 83.5q0 7 -1.5 11.5t-5 10.5t-5.5 11q-89 206 -117 271q-26 59 -43 76q-16 19 -32 19q-15 0 -15 7v6q0 5 9 7h215q9 0 9 -7v-6q0 -6 -7 -7h-19q-16 0 -27.5 -10.5t-11.5 -27.5q0 -9 11 -36q12 -27 47.5 -111t47.5 -111q4 -8 7.5 -15.5t5 -11t1.5 -4.5q10 -27 29 -3 q27 33 71 84.5t67 79.5q39 46 60 72q22 25 25 35q4 9 4 23q0 15 -11.5 25.5t-27.5 10.5h-18q-10 0 -10 7v7q0 7 10 6h181q7 0 7 -5v-7q0 -3 -0.5 -4.5t-2.5 -2.5t-3.5 -1.5t-5 -1t-5.5 -0.5q-11 -3 -19 -8q-13 -7 -33 -29q-14 -15 -62 -73q-31 -38 -116 -138.5t-120 -142.5 q-10 -50 -24 -113q-15 -69 -15 -90z" />
<glyph unicode="&#xde;" horiz-adv-x="521" d="M446 377q0 79 -38 123.5t-110 44.5h-6l-79 -359q168 0 217 112q16 36 16 79zM220 627q0 22 -25.5 32t-57.5 10q-3 0 -3 4l2 12q2 3 4 3h1h255q4 0 2 -3l-2 -12q-1 -4 -11 -4q-67 0 -83 -79l-5 -22h5q85 0 155 -43q79 -49 79 -136q0 -162 -169 -211q-64 -19 -155 -19h-4 l-18 -81q-2 -10 -2 -19q0 -39 91 -39q3 0 3 -4l-3 -12q-1 -4 -4 -4h-262q-3 0 -3 4l2 12q1 4 12 4q38 0 56.5 16t26.5 53l111 521q1 2 1.5 8t0.5 9z" />
<glyph unicode="&#xdf;" horiz-adv-x="611" d="M457 804q76 0 125 -38.5t49 -106.5q0 -112 -125 -183q-34 -19 -86 -38v-2q111 -22 152 -108q15 -30 15 -72q0 -78 -47 -145q-41 -56 -100 -90q-61 -34 -106 -34q-18 0 -33 7.5t-15 20.5q0 16 10.5 29.5t23.5 13.5q14 0 33 -13t35 -13t29 12q41 38 65 133q14 56 16 103 q0 143 -160 143l4 18q93 8 150 68q58 61 58 146q0 87 -61 112q-17 7 -37 7h-5q-58 0 -90 -16.5t-47 -55.5q-17 -63 -42 -181l-117 -550q-20 -94 -74 -174q-44 -66 -107 -94q-33 -15 -59 -15q-39 0 -59 14q-18 15 -18 29q0 32 25 32q19 0 50.5 -21t49.5 -21q45 0 80 77 q28 85 46 172l115 551q33 159 111 228q61 53 144 55h2z" />
<glyph unicode="&#xe0;" horiz-adv-x="448" d="M227 669q0 18 10 29t27 11t35 -24l104 -144q2 -2 2 -3t-2 -3l-11 -14q-2 -2 -3 -2t-3 2l-132 106q-27 23 -27 42zM345 376q0 8 -18 8q-43 0 -92 -26q-84 -44 -108 -150q-12 -54 -12 -82q0 -44 7.5 -64.5t33.5 -20.5q38 20 76 55q60 54 65 58zM348 67q0 -6 4 -12t9 -6 q7 0 26 18t25 18q8 0 8 -9t-53 -50t-67 -41q-24 0 -24 44q0 25 6 48q5 20 5 33q0 6 -2 6q-7 0 -24 -16q-78 -69 -109 -91q-29 -22 -48 -22q-32 0 -45 49q-10 33 -10 66q0 102 76 193q75 90 182 126q53 18 109 18q8 0 8 -13l-74 -338q0 -3 -1 -10t-1 -11z" />
<glyph unicode="&#xe1;" horiz-adv-x="448" d="M434 709q18 0 27.5 -11.5t9.5 -29.5t-27 -41l-131 -106q-1 -1 -4 -1q-2 0 -3 1l-11 14q-2 2 -2 3t2 3l104 144q18 24 35 24zM345 376q0 8 -18 8q-43 0 -92 -26q-84 -44 -108 -150q-12 -54 -12 -82q0 -44 7.5 -64.5t33.5 -20.5q38 20 76 55q60 54 65 58zM348 67 q0 -6 4 -12t9 -6q7 0 26 18t25 18q8 0 8 -9t-53 -50t-67 -41q-24 0 -24 44q0 25 6 48q5 20 5 33q0 6 -2 6q-7 0 -24 -16q-78 -69 -109 -91q-29 -22 -48 -22q-32 0 -45 49q-10 33 -10 66q0 102 76 193q75 90 182 126q53 18 109 18q8 0 8 -13l-74 -338q0 -3 -1 -10t-1 -11z " />
<glyph unicode="&#xe2;" horiz-adv-x="448" d="M264 520h-24l122 188h52l14 -189h-24l-32 121zM345 376q0 8 -18 8q-43 0 -92 -26q-84 -44 -108 -150q-12 -54 -12 -82q0 -44 7.5 -64.5t33.5 -20.5q38 20 76 55q60 54 65 58zM348 67q0 -6 4 -12t9 -6q7 0 26 18t25 18q8 0 8 -9t-53 -50t-67 -41q-24 0 -24 44q0 25 6 48 q5 20 5 33q0 6 -2 6q-7 0 -24 -16q-78 -69 -109 -91q-29 -22 -48 -22q-32 0 -45 49q-10 33 -10 66q0 102 76 193q75 90 182 126q53 18 109 18q8 0 8 -13l-74 -338q0 -3 -1 -10t-1 -11z" />
<glyph unicode="&#xe3;" horiz-adv-x="448" d="M186 558q0 37 20.5 67t51.5 30q30 0 67 -17q35 -18 55 -26q21 -8 33 -8q20 0 30.5 17t10.5 40q0 7 8 7h9q7 0 7 -18q0 -35 -21.5 -61.5t-53.5 -26.5t-64 17q-45 22 -51 25q-19 8 -31 8q-20 0 -34.5 -20.5t-14.5 -42.5q0 -6 -8 -6h-10q-4 0 -4 15zM345 376q0 8 -18 8 q-43 0 -92 -26q-84 -44 -108 -150q-12 -54 -12 -82q0 -44 7.5 -64.5t33.5 -20.5q38 20 76 55q60 54 65 58zM348 67q0 -6 4 -12t9 -6q7 0 26 18t25 18q8 0 8 -9t-53 -50t-67 -41q-24 0 -24 44q0 25 6 48q5 20 5 33q0 6 -2 6q-7 0 -24 -16q-78 -69 -109 -91q-29 -22 -48 -22 q-32 0 -45 49q-10 33 -10 66q0 102 76 193q75 90 182 126q53 18 109 18q8 0 8 -13l-74 -338q0 -3 -1 -10t-1 -11z" />
<glyph unicode="&#xe4;" horiz-adv-x="448" d="M296 615q0 -19 -13 -34t-30 -15q-24 0 -39 13t-15 35t14 36t40 14q17 0 30 -15.5t13 -33.5zM471 614q0 -18 -13 -33t-30 -15q-24 0 -39 13t-15 35q0 23 14.5 36.5t40.5 13.5q17 0 29.5 -15.5t12.5 -34.5zM345 376q0 8 -18 8q-43 0 -92 -26q-84 -44 -108 -150 q-12 -54 -12 -82q0 -44 7.5 -64.5t33.5 -20.5q38 20 76 55q60 54 65 58zM348 67q0 -6 4 -12t9 -6q7 0 26 18t25 18q8 0 8 -9t-53 -50t-67 -41q-24 0 -24 44q0 25 6 48q5 20 5 33q0 6 -2 6q-7 0 -24 -16q-78 -69 -109 -91q-29 -22 -48 -22q-32 0 -45 49q-10 33 -10 66 q0 102 76 193q75 90 182 126q53 18 109 18q8 0 8 -13l-74 -338q0 -3 -1 -10t-1 -11z" />
<glyph unicode="&#xe5;" horiz-adv-x="448" d="M412 617q0 21 -15 38.5t-34 17.5q-59 0 -62 -61q0 -19 17.5 -34.5t38.5 -15.5q23 0 39 16t16 39zM355 527q-37 0 -64 26t-27 63t27 64t64 27t63.5 -27t26.5 -63q0 -37 -26.5 -63.5t-63.5 -26.5zM345 376q0 8 -18 8q-43 0 -92 -26q-84 -44 -108 -150q-12 -54 -12 -82 q0 -44 7.5 -64.5t33.5 -20.5q38 20 76 55q60 54 65 58zM348 67q0 -6 4 -12t9 -6q7 0 26 18t25 18q8 0 8 -9t-53 -50t-67 -41q-24 0 -24 44q0 25 6 48q5 20 5 33q0 6 -2 6q-7 0 -24 -16q-78 -69 -109 -91q-29 -22 -48 -22q-32 0 -45 49q-10 33 -10 66q0 102 76 193 q75 90 182 126q53 18 109 18q8 0 8 -13l-74 -338q0 -3 -1 -10t-1 -11z" />
<glyph unicode="&#xe6;" horiz-adv-x="615" d="M568 371q0 50 -42 50q-2 0 -3 -1q-35 0 -66 -35q-46 -51 -72 -155h1q0 -6 2 -7t10 -1q76 22 106 43q31 22 48 47q16 25 16 59zM335 376q0 8 -18 8q-44 0 -91 -26q-83 -43 -109 -150q-12 -54 -12 -82q0 -44 7.5 -64.5t33.5 -20.5q38 20 76 55q60 54 65 58zM362 126 q0 -45 22 -72.5t65 -27.5q45 0 113 41l7 -12q-49 -39 -116 -59q-29 -9 -58 -9q-54 0 -80.5 40.5t-27.5 103.5l-23 -21q-7 -5 -48 -41q-47 -40 -73 -60q-29 -22 -48 -22q-31 0 -46 49q-10 33 -10 66q0 103 76 192q74 91 182 127q53 18 109 18q8 0 8 -13q-8 -39 -10 -46 q65 59 143 59q34 0 50 -13q31 -25 31 -56q0 -76 -95 -118q-28 -12 -86.5 -30t-68.5 -21q-16 -36 -16 -75z" />
<glyph unicode="&#xe7;" horiz-adv-x="332" d="M315 363q-16 0 -41.5 16t-42.5 16q-15 0 -32 -17q-47 -47 -71 -157q-16 -65 -16 -96q0 -99 65 -99q28 0 50 16q11 7 30 22t32 23l10 -13q-41 -40 -69 -60q-32 -21 -71 -25l-15 -64q73 -19 73 -81q0 -21 -14 -41q-37 -51 -141 -63q-26 0 -28 20q0 10 18 13q68 13 78 18 q35 19 35 47q0 24 -17.5 39.5t-41.5 17.5l22 92q-48 2 -69 32.5t-21 88.5q0 83 40 165q36 76 93 121q58 46 113 46q27 0 37.5 -10.5t10.5 -37.5q0 -29 -17 -29z" />
<glyph unicode="&#xe8;" horiz-adv-x="385" d="M195 669q0 18 10 29t27 11t35 -24l104 -144q2 -2 2 -3t-2 -3l-11 -14q-2 -2 -3 -2t-3 2l-132 106q-27 23 -27 42zM340 372q0 49 -41 49q-40 0 -70 -36q-46 -51 -72 -155q0 -8 13 -8q74 21 106 44q33 23 48 47q16 23 16 59zM135 130q0 -104 86 -104q45 0 113 41l7 -12 q-49 -39 -116 -59q-28 -9 -58 -9q-54 0 -81 42.5t-27 106.5q11 108 78 201q47 62 111 89q30 13 56 13h4q41 0 66.5 -17t25.5 -51q0 -76 -94 -119q-28 -12 -86.5 -29.5t-69.5 -21.5q-15 -35 -15 -71z" />
<glyph unicode="&#xe9;" horiz-adv-x="385" d="M389 709q18 0 27.5 -11.5t9.5 -29.5t-27 -41l-131 -106q-1 -1 -4 -1q-2 0 -3 1l-11 14q-2 2 -2 3t2 3l104 144q18 24 35 24zM340 372q0 49 -41 49q-40 0 -70 -36q-46 -51 -72 -155q0 -8 13 -8q74 21 106 44q33 23 48 47q16 23 16 59zM135 130q0 -104 86 -104q45 0 113 41 l7 -12q-49 -39 -116 -59q-28 -9 -58 -9q-54 0 -81 42.5t-27 106.5q11 108 78 201q47 62 111 89q30 13 56 13h4q41 0 66.5 -17t25.5 -51q0 -76 -94 -119q-28 -12 -86.5 -29.5t-69.5 -21.5q-15 -35 -15 -71z" />
<glyph unicode="&#xea;" horiz-adv-x="388" d="M230 520h-24l122 188h52l14 -189h-24l-32 121zM340 372q0 49 -41 49q-40 0 -70 -36q-46 -51 -72 -155q0 -8 13 -8q74 21 106 44q33 23 48 47q16 23 16 59zM135 130q0 -104 86 -104q45 0 113 41l7 -12q-49 -39 -116 -59q-28 -9 -58 -9q-54 0 -81 42.5t-27 106.5 q11 108 78 201q47 62 111 89q30 13 56 13h4q41 0 66.5 -17t25.5 -51q0 -76 -94 -119q-28 -12 -86.5 -29.5t-69.5 -21.5q-15 -35 -15 -71z" />
<glyph unicode="&#xeb;" horiz-adv-x="385" d="M273 615q0 -19 -13 -34t-30 -15q-24 0 -39 13t-15 35t14 36t40 14q17 0 30 -15.5t13 -33.5zM448 614q0 -18 -13 -33t-30 -15q-24 0 -39 13t-15 35q0 23 14.5 36.5t40.5 13.5q17 0 29.5 -15.5t12.5 -34.5zM340 372q0 49 -41 49q-40 0 -70 -36q-46 -51 -72 -155q0 -8 13 -8 q74 21 106 44q33 23 48 47q16 23 16 59zM135 130q0 -104 86 -104q45 0 113 41l7 -12q-49 -39 -116 -59q-28 -9 -58 -9q-54 0 -81 42.5t-27 106.5q11 108 78 201q47 62 111 89q30 13 56 13h4q41 0 66.5 -17t25.5 -51q0 -76 -94 -119q-28 -12 -86.5 -29.5t-69.5 -21.5 q-15 -35 -15 -71z" />
<glyph unicode="&#xec;" horiz-adv-x="271" d="M91 668q0 18 10 29.5t27 11.5t35 -24l104 -144q2 -2 2 -3t-2 -3l-11 -14q-2 -2 -3 -2t-3 2l-132 106q-27 23 -27 41zM118 -14q-14 0 -25.5 11.5t-11.5 24.5q0 9 2 19l71 338v2q0 11 -12 11q-20 0 -64 -47q-9 -10 -13 -13l-9 9q10 19 59 59q48 39 74 39h1q14 0 25.5 -11 t11.5 -24q0 -11 -2 -19l-72 -338v-2q0 -11 13 -11q20 0 68 52l8 8l9 -10q-10 -19 -58 -58q-49 -40 -75 -40z" />
<glyph unicode="&#xed;" horiz-adv-x="271" d="M272 709q18 0 27.5 -11.5t9.5 -29.5t-27 -41l-131 -106q-1 -1 -4 -1q-2 0 -3 1l-11 14q-2 2 -2 3t2 3l104 144q18 24 35 24zM118 -14q-14 0 -25.5 11.5t-11.5 24.5q0 9 2 19l71 338v2q0 11 -12 11q-20 0 -64 -47q-9 -10 -13 -13l-9 9q10 19 59 59q48 39 74 39h1 q14 0 25.5 -11t11.5 -24q0 -11 -2 -19l-72 -338v-2q0 -11 13 -11q20 0 68 52l8 8l9 -10q-10 -19 -58 -58q-49 -40 -75 -40z" />
<glyph unicode="&#xee;" horiz-adv-x="271" d="M117 520h-24l122 188h52l14 -189h-24l-32 121zM118 -14q-14 0 -25.5 11.5t-11.5 24.5q0 9 2 19l71 338v2q0 11 -12 11q-20 0 -64 -47q-9 -10 -13 -13l-9 9q10 19 59 59q48 39 74 39h1q14 0 25.5 -11t11.5 -24q0 -11 -2 -19l-72 -338v-2q0 -11 13 -11q20 0 68 52l8 8 l9 -10q-10 -19 -58 -58q-49 -40 -75 -40z" />
<glyph unicode="&#xef;" horiz-adv-x="271" d="M166 614q0 -18 -13 -33t-30 -15q-24 0 -39 13t-15 35t14 36t39 14q18 0 31 -15.5t13 -34.5zM341 614q0 -18 -13 -33t-30 -15q-24 0 -39 13t-15 35q0 23 14.5 36.5t39.5 13.5q18 0 30.5 -15.5t12.5 -34.5zM118 -14q-14 0 -25.5 11.5t-11.5 24.5q0 9 2 19l71 338v2 q0 11 -12 11q-20 0 -64 -47q-9 -10 -13 -13l-9 9q10 19 59 59q48 39 74 39h1q14 0 25.5 -11t11.5 -24q0 -11 -2 -19l-72 -338v-2q0 -11 13 -11q20 0 68 52l8 8l9 -10q-10 -19 -58 -58q-49 -40 -75 -40z" />
<glyph unicode="&#xf0;" horiz-adv-x="449" d="M134 148q0 -48 19 -86.5t55 -38.5q66 0 107 80q42 81 42 170q0 59 -27 103q-18 27 -42 27q-46 0 -83 -43q-30 -35 -50.5 -95t-20.5 -117zM282 660q-49 78 -91 112l7 31q12 0 46 -34q36 -33 73 -88l108 63l19 -34l-107 -63q98 -164 98 -337q0 -138 -82 -230 q-81 -93 -211 -93q-26 0 -54 51q-27 53 -27 98q0 87 47 159.5t113 108.5q68 35 126 35q3 0 13 -2q0 82 -58 189l-111 -64l-19 34z" />
<glyph unicode="&#xf1;" horiz-adv-x="486" d="M183 558q0 37 20.5 67t51.5 30t67 -18q41 -20 55 -25q21 -8 33 -8q20 0 30.5 17t10.5 40q0 7 8 7h9q7 0 7 -18q0 -35 -21.5 -61.5t-53.5 -26.5t-64 17q-45 22 -51 25q-19 8 -31 8q-20 0 -34.5 -20.5t-14.5 -42.5q0 -6 -8 -6h-10q-4 0 -4 15zM397 381q0 11 -15 11 q-7 -1 -22 -12q-11 -9 -34 -30q-24 -23 -73.5 -78.5t-62.5 -76.5q-9 -13 -12 -27l-35 -163q-34 -20 -51 -20h-1q-18 1 -18 15q0 3 1.5 12t4 18.5t2.5 11.5l65 309v2q0 14 -11 14q-7 0 -24 -18l-46 -45l-11 12q10 22 72 72q60 51 81 51q18 0 18 -32q0 -8 -6 -44 q-13 -58 -24 -113q0 -4 2.5 -5t5.5 0t5 3q65 75 70 80q50 54 86 80q38 31 69 31q14 0 25 -10.5t11 -24.5q0 -15 -1 -19l-87 -338v-2q0 -11 12 -11q20 0 69 52l8 8l9 -10q-10 -19 -58 -58q-49 -40 -76 -40q-14 0 -25 11t-11 25t1 19l87 338v2z" />
<glyph unicode="&#xf2;" horiz-adv-x="444" d="M235 668q0 18 10 29.5t27 11.5t35 -24l104 -144q2 -2 2 -3t-2 -3l-11 -14q-2 -2 -3 -2t-3 2l-132 106q-27 23 -27 41zM134 150q0 -49 19 -88t55 -39q66 0 107 80q42 81 42 170q0 59 -27 103q-18 27 -43 27q-45 0 -82 -43q-30 -36 -50.5 -94t-20.5 -116zM347 439 q29 0 56 -52q27 -51 27 -104q0 -87 -45 -157q-37 -56 -103.5 -97.5t-139.5 -41.5q-26 0 -54 51q-27 53 -27 97q0 85 44 157q38 60 103 103.5t139 43.5z" />
<glyph unicode="&#xf3;" horiz-adv-x="444" d="M422 709q18 0 27.5 -11.5t9.5 -29.5t-27 -41l-131 -106q-1 -1 -4 -1q-2 0 -3 1l-11 14q-2 2 -2 3t2 3l104 144q18 24 35 24zM134 150q0 -49 19 -88t55 -39q66 0 107 80q42 81 42 170q0 59 -27 103q-18 27 -43 27q-45 0 -82 -43q-30 -36 -50.5 -94t-20.5 -116zM347 439 q29 0 56 -52q27 -51 27 -104q0 -87 -45 -157q-37 -56 -103.5 -97.5t-139.5 -41.5q-26 0 -54 51q-27 53 -27 97q0 85 44 157q38 60 103 103.5t139 43.5z" />
<glyph unicode="&#xf4;" horiz-adv-x="444" d="M271 520h-24l122 188h52l14 -189h-24l-32 121zM134 150q0 -49 19 -88t55 -39q66 0 107 80q42 81 42 170q0 59 -27 103q-18 27 -43 27q-45 0 -82 -43q-30 -36 -50.5 -94t-20.5 -116zM347 439q29 0 56 -52q27 -51 27 -104q0 -87 -45 -157q-37 -56 -103.5 -97.5 t-139.5 -41.5q-26 0 -54 51q-27 53 -27 97q0 85 44 157q38 60 103 103.5t139 43.5z" />
<glyph unicode="&#xf5;" horiz-adv-x="444" d="M217 558q0 37 20.5 67t51.5 30t67 -18q41 -19 54 -25q22 -8 34 -8q20 0 30.5 17t10.5 40q0 7 8 7h9q7 0 7 -18q0 -36 -21.5 -62t-54.5 -26q-30 0 -64 17q-39 20 -50 25q-19 8 -31 8q-20 0 -34.5 -20.5t-14.5 -42.5q0 -6 -8 -6h-10q-4 0 -4 15zM134 150q0 -49 19 -88 t55 -39q66 0 107 80q42 81 42 170q0 59 -27 103q-18 27 -43 27q-45 0 -82 -43q-30 -36 -50.5 -94t-20.5 -116zM347 439q29 0 56 -52q27 -51 27 -104q0 -87 -45 -157q-37 -56 -103.5 -97.5t-139.5 -41.5q-26 0 -54 51q-27 53 -27 97q0 85 44 157q38 60 103 103.5t139 43.5z " />
<glyph unicode="&#xf6;" horiz-adv-x="444" d="M312 614q0 -18 -13 -33t-30 -15q-24 0 -39 13t-15 35t14 36t39 14q18 0 31 -15.5t13 -34.5zM487 614q0 -18 -13 -33t-30 -15q-24 0 -39 13t-15 35q0 23 14.5 36.5t39.5 13.5q18 0 30.5 -15.5t12.5 -34.5zM134 150q0 -49 19 -88t55 -39q66 0 107 80q42 81 42 170 q0 59 -27 103q-18 27 -43 27q-45 0 -82 -43q-30 -36 -50.5 -94t-20.5 -116zM347 439q29 0 56 -52q27 -51 27 -104q0 -87 -45 -157q-37 -56 -103.5 -97.5t-139.5 -41.5q-26 0 -54 51q-27 53 -27 97q0 85 44 157q38 60 103 103.5t139 43.5z" />
<glyph unicode="&#xf7;" d="M314 482q0 -26 -14.5 -45t-36.5 -19q-58 0 -63 58q0 22 15 39.5t36 17.5q25 0 44 -14.5t19 -36.5zM314 138q0 -25 -15.5 -44t-36.5 -19q-57 0 -62 57q0 21 15.5 39.5t35.5 18.5q25 0 44 -15.5t19 -36.5zM43 337h426v-62h-426v62z" />
<glyph unicode="&#xf8;" horiz-adv-x="461" d="M158 73q20 -50 61 -50q66 0 107 80q41 82 41 170q0 13 -1 22zM357 337q-21 66 -59 66q-67 0 -110 -85q-43 -83 -43 -177q0 -3 2 -29zM91 53q-20 48 -20 87q0 82 45 152q38 60 102.5 103.5t138.5 43.5q27 0 53 -45l55 60l25 -25l-65 -70q15 -43 15 -87q0 -80 -45 -146 q-37 -56 -103 -97.5t-140 -41.5q-21 0 -43 34l-55 -60l-25 25z" />
<glyph unicode="&#xf9;" horiz-adv-x="513" d="M239 669q0 18 10 29t27 11t35 -24l104 -144q2 -2 2 -3t-2 -3l-11 -14q-2 -2 -3 -2t-3 2l-132 106q-27 23 -27 42zM192 438q14 0 25.5 -11t11.5 -24q0 -12 -69 -338v-2q0 -11 14 -11t59 53q49 57 105 124q41 50 52 94l21 97q2 10 5.5 15t9.5 4h45q5 1 8 -2t3 -9v-3l-8 -35 q-7 -34 -26 -126t-40 -190q0 -16 11 -16q7 0 23 18l45 45l12 -12q-6 -13 -38 -42q-86 -80 -115 -80q-18 0 -18 31q0 17 4 32l35 164q0 4 -2 5t-5 0t-5 -3q-6 -8 -31 -35q-12 -13 -53 -60t-60 -66q-62 -68 -92 -68q-13 0 -24 11.5t-11 23.5v12q0 4 1 6l72 338v2q0 11 -12 11 q-20 0 -64 -47q-9 -10 -13 -13l-9 9q10 19 59 59q48 39 74 39z" />
<glyph unicode="&#xfa;" horiz-adv-x="513" d="M417 709q18 0 27.5 -11.5t9.5 -29.5t-27 -41l-131 -106q-1 -1 -4 -1q-2 0 -3 1l-11 14q-2 2 -2 3t2 3l104 144q18 24 35 24zM192 438q14 0 25.5 -11t11.5 -24q0 -12 -69 -338v-2q0 -11 14 -11t59 53q49 57 105 124q41 50 52 94l21 97q2 10 5.5 15t9.5 4h45q5 1 8 -2t3 -9 v-3l-8 -35q-7 -34 -26 -126t-40 -190q0 -16 11 -16q7 0 23 18l45 45l12 -12q-6 -13 -38 -42q-86 -80 -115 -80q-18 0 -18 31q0 17 4 32l35 164q0 4 -2 5t-5 0t-5 -3q-6 -8 -31 -35q-12 -13 -53 -60t-60 -66q-62 -68 -92 -68q-13 0 -24 11.5t-11 23.5v12q0 4 1 6l72 338v2 q0 11 -12 11q-20 0 -64 -47q-9 -10 -13 -13l-9 9q10 19 59 59q48 39 74 39z" />
<glyph unicode="&#xfb;" horiz-adv-x="513" d="M264 520h-24l122 188h52l14 -189h-24l-32 121zM192 438q14 0 25.5 -11t11.5 -24q0 -12 -69 -338v-2q0 -11 14 -11t59 53q49 57 105 124q41 50 52 94l21 97q2 10 5.5 15t9.5 4h45q5 1 8 -2t3 -9v-3l-8 -35q-7 -34 -26 -126t-40 -190q0 -16 11 -16q7 0 23 18l45 45l12 -12 q-6 -13 -38 -42q-86 -80 -115 -80q-18 0 -18 31q0 17 4 32l35 164q0 4 -2 5t-5 0t-5 -3q-6 -8 -31 -35q-12 -13 -53 -60t-60 -66q-62 -68 -92 -68q-13 0 -24 11.5t-11 23.5v12q0 4 1 6l72 338v2q0 11 -12 11q-20 0 -64 -47q-9 -10 -13 -13l-9 9q10 19 59 59q48 39 74 39z " />
<glyph unicode="&#xfc;" horiz-adv-x="513" d="M317 615q0 -19 -13 -34t-30 -15q-24 0 -39 13t-15 35t14 36t39 14q18 0 31 -15.5t13 -33.5zM492 614q0 -18 -13 -33t-30 -15q-24 0 -39 13t-15 35q0 23 14.5 36.5t39.5 13.5q18 0 30.5 -15.5t12.5 -34.5zM192 438q14 0 25.5 -11t11.5 -24q0 -12 -69 -338v-2q0 -11 14 -11 t59 53q49 57 105 124q41 50 52 94l21 97q2 10 5.5 15t9.5 4h45q5 1 8 -2t3 -9v-3l-8 -35q-7 -34 -26 -126t-40 -190q0 -16 11 -16q7 0 23 18l45 45l12 -12q-6 -13 -38 -42q-86 -80 -115 -80q-18 0 -18 31q0 17 4 32l35 164q0 4 -2 5t-5 0t-5 -3q-6 -8 -31 -35 q-12 -13 -53 -60t-60 -66q-62 -68 -92 -68q-13 0 -24 11.5t-11 23.5v12q0 4 1 6l72 338v2q0 11 -12 11q-20 0 -64 -47q-9 -10 -13 -13l-9 9q10 19 59 59q48 39 74 39z" />
<glyph unicode="&#xfd;" horiz-adv-x="508" d="M442 709q18 0 27.5 -11.5t9.5 -29.5t-27 -41l-131 -106q-1 -1 -4 -1q-2 0 -3 1l-11 14q-2 2 -2 3t2 3l104 144q18 24 35 24zM180 -266q0 -12 8 -16.5t27 -4.5h37l-4 -16h-229l4 16q32 0 44.5 4t27.5 18q12 12 35 62q38 79 51 115q42 103 42 157q0 103 -7 141 q-23 122 -31 138q-14 32 -28 34q-10 -2 -35 -35q-26 -35 -31 -35q-9 0 -9 10t10 24q12 18 49 57q6 5 11.5 11.5t9.5 10t13 8.5q12 6 25 6q12 0 17 -9q71 -122 71 -339q0 -18 10 -24l38 67q56 96 82 169q9 27 9 40q0 17 -8 31q-8 13 -8 20q0 18 12 31.5t29 13.5q50 0 50 -56 q0 -24 -12 -51q-19 -42 -73 -125q-108 -165 -122 -191q-8 -18 -38.5 -93t-50.5 -119l-19 -41l-4 -12q-3 -9 -3 -17z" />
<glyph unicode="&#xfe;" horiz-adv-x="469" d="M158 65q0 -23 15 -40.5t38 -17.5q40 0 81 45q35 40 64 110t29 127q0 25 -1 38.5t-4.5 29t-12.5 22t-24 6.5q-31 -16 -103 -93q-29 -29 -45 -44l-35 -166q-2 -10 -2 -17zM90 -250q0 -12 7 -20t21 -11.5t26.5 -4.5t31.5 -1l-3 -16h-239l4 16q48 0 66 25q17 23 31 86 l190 887q2 10 2 13q0 12 -10 12q-8 0 -59 -23l-6 16q38 21 97 51q11 6 25 13q19 10 24 10q11 0 11 -11q0 -14 -7 -45q-25 -108 -86 -400q-8 -31 -8 -41q0 -6 6 -6q7 0 13 6q12 10 37.5 34t46.5 43.5t35 31.5q32 24 49 24q29 0 43.5 -39t14.5 -85q0 -90 -29.5 -162.5 t-80.5 -116.5q-56 -49 -129 -49q-36 0 -70 18l-52 -242q-2 -10 -2 -13z" />
<glyph unicode="&#xff;" horiz-adv-x="501" d="M302 615q0 -19 -13 -34t-30 -15q-24 0 -39 13t-15 35t14 36t40 14q17 0 30 -15.5t13 -33.5zM477 614q0 -18 -13 -33t-30 -15q-24 0 -39 13t-15 35q0 23 14.5 36.5t40.5 13.5q17 0 29.5 -15.5t12.5 -34.5zM180 -266q0 -12 8 -16.5t27 -4.5h37l-4 -16h-229l4 16 q32 0 44.5 4t27.5 18q12 12 35 62q38 79 51 115q42 103 42 157q0 103 -7 141q-23 122 -31 138q-14 32 -28 34q-10 -2 -35 -35q-26 -35 -31 -35q-9 0 -9 10t10 24q12 18 49 57q6 5 11.5 11.5t9.5 10t13 8.5q12 6 25 6q12 0 17 -9q71 -122 71 -339q0 -18 10 -24l38 67 q56 96 82 169q9 27 9 40q0 17 -8 31q-8 13 -8 20q0 18 12 31.5t29 13.5q50 0 50 -56q0 -24 -12 -51q-19 -42 -73 -125q-108 -165 -122 -191q-8 -18 -38.5 -93t-50.5 -119l-19 -41l-4 -12q-3 -9 -3 -17z" />
<glyph unicode="&#x152;" horiz-adv-x="1029" d="M117 304q0 -122 64 -203.5t174 -81.5q49 0 67 8q29 16 40 62l110 515q0 4 0.5 7.5t1 6t0.5 3.5q0 21 -14.5 34.5t-48.5 24.5q-41 11 -88 11q-96 0 -168 -58q-61 -49 -99.5 -138t-38.5 -191zM553 85q0 -19 8 -31t25 -17t32.5 -6.5t42.5 -1.5q38 0 83 3q59 4 94 20.5 t69 52.5q8 8 43 47q9 9 19 9t10 -9q0 -6 -12 -34q-7 -17 -19 -50.5t-16 -43.5q-5 -14 -10.5 -19t-20.5 -5h-509q-12 -1 -50 -1q-79 0 -157 43q-74 40 -120 111.5t-46 168.5q0 105 56.5 193.5t137.5 138.5q89 54 192 54q77 0 143 -20h447q24 0 25 -10q0 -8 -3 -22 q0 -3 -2 -17.5t-6 -42t-8 -57.5q-1 -7 -12 -7q-13 0 -13 28q0 44 -24.5 73t-65.5 29h-179q-28 0 -33.5 -4.5t-9.5 -27.5l-52 -244q-1 -3 -1 -6q0 -12 21 -12h179q62 0 101 70q3 6 8 6h8q2 0 3 -2t1 -4v-1v-1l-39 -182q-1 -10 -9 -10q-7 0 -8 1.5t-2 8.5q-1 4 -2 15.5 t-3 18.5q-10 43 -73 43h-176q-21 0 -27 -34q-2 -14 -21 -97q-2 -12 -7.5 -36.5t-8.5 -43t-3 -35.5z" />
<glyph unicode="&#x153;" horiz-adv-x="655" d="M605 371q0 50 -41 50q-2 0 -3 -1q-34 0 -67 -35q-46 -51 -72 -155q0 -8 14 -8q76 22 106 43q31 23 47 46t16 60zM120 150q0 -49 18.5 -88t55.5 -39q66 0 107 80q41 82 41 170q0 59 -27 103q-18 27 -42 27q-45 0 -82 -43q-30 -36 -50.5 -94t-20.5 -116zM400 126 q0 -96 86 -100q46 0 114 41l6 -12q-49 -39 -116 -59q-28 -9 -57 -9q-80 0 -102 91q-69 -66 -150 -85q-27 -6 -47 -6q-33 0 -60.5 52.5t-27.5 95.5q0 86 45 157q37 61 102 104t140 43q20 0 41 -27q20 -28 32 -71q77 98 178 98q34 0 51 -13q31 -25 31 -55q0 -77 -95 -119 q-28 -12 -86.5 -30t-68.5 -21q-16 -36 -16 -75z" />
<glyph unicode="&#x178;" horiz-adv-x="724" d="M458 893q0 -18 -13 -33t-30 -15q-24 0 -39 13t-15 35t14 36t40 14q17 0 30 -15.5t13 -34.5zM633 893q0 -18 -13 -33t-30 -15q-24 0 -39 13t-15 35q0 23 14.5 36.5t40.5 13.5q17 0 29.5 -15.5t12.5 -34.5zM392 72q0 -25 24.5 -38.5t57.5 -13.5h23q9 0 9 -7v-7q0 -6 -8 -6 h-305q-10 0 -10 7v6q0 6 10 7h29q32 0 56 20.5t30 48.5q5 31 18 96.5t16 83.5q0 7 -1.5 11.5t-5 10.5t-5.5 11q-89 206 -117 271q-26 59 -43 76q-16 19 -32 19q-15 0 -15 7v6q0 5 9 7h215q9 0 9 -7v-6q0 -6 -7 -7h-19q-16 0 -27.5 -10.5t-11.5 -27.5q0 -9 11 -36 q12 -27 47.5 -111t47.5 -111q4 -8 7.5 -15.5t5 -11t1.5 -4.5q10 -27 29 -3q27 33 71 84.5t67 79.5q39 46 60 72q22 25 25 35q4 9 4 23q0 15 -11.5 25.5t-27.5 10.5h-18q-10 0 -10 7v7q0 7 10 6h181q7 0 7 -5v-7q0 -3 -0.5 -4.5t-2.5 -2.5t-3.5 -1.5t-5 -1t-5.5 -0.5 q-11 -3 -19 -8q-13 -7 -33 -29q-14 -15 -62 -73q-31 -38 -116 -138.5t-120 -142.5q-10 -50 -24 -113q-15 -69 -15 -90z" />
<glyph unicode="&#x2c6;" horiz-adv-x="300" d="M150 520h-24l122 188h52l14 -189h-24l-32 121z" />
<glyph unicode="&#x2dc;" horiz-adv-x="333" d="M105 558q0 37 20.5 67t51.5 30q30 0 67 -17q35 -18 55 -26q21 -8 33 -8q20 0 30.5 17t10.5 40q0 7 8 7h9q7 0 7 -18q0 -35 -21.5 -61.5t-53.5 -26.5t-64 17q-45 22 -51 25q-19 8 -31 8q-20 0 -34.5 -20.5t-14.5 -42.5q0 -6 -8 -6h-10q-4 0 -4 15z" />
<glyph unicode="&#x2000;" horiz-adv-x="484" />
<glyph unicode="&#x2001;" horiz-adv-x="969" />
<glyph unicode="&#x2002;" horiz-adv-x="484" />
<glyph unicode="&#x2003;" horiz-adv-x="969" />
<glyph unicode="&#x2004;" horiz-adv-x="323" />
<glyph unicode="&#x2005;" horiz-adv-x="242" />
<glyph unicode="&#x2006;" horiz-adv-x="161" />
<glyph unicode="&#x2007;" horiz-adv-x="161" />
<glyph unicode="&#x2008;" horiz-adv-x="121" />
<glyph unicode="&#x2009;" horiz-adv-x="193" />
<glyph unicode="&#x200a;" horiz-adv-x="53" />
<glyph unicode="&#x2010;" horiz-adv-x="452" d="M420 283l-15 -75h-344l16 75h343z" />
<glyph unicode="&#x2011;" horiz-adv-x="452" d="M420 283l-15 -75h-344l16 75h343z" />
<glyph unicode="&#x2012;" horiz-adv-x="452" d="M420 283l-15 -75h-344l16 75h343z" />
<glyph unicode="&#x2013;" horiz-adv-x="500" d="M60 282h498l-15 -71h-498z" />
<glyph unicode="&#x2014;" horiz-adv-x="1000" d="M61 282h997l-15 -71h-997z" />
<glyph unicode="&#x2018;" horiz-adv-x="182" d="M108 424q-26 0 -42.5 20.5t-16.5 49.5q0 69 44.5 125.5t107.5 87.5q2 1 5 1q13 0 13 -15q0 -7 -14 -16q-29 -18 -45 -30.5t-30.5 -36t-14.5 -51.5q0 -18 15 -45q14 -28 14 -41q0 -16 -11 -32.5t-25 -16.5z" />
<glyph unicode="&#x2019;" horiz-adv-x="194" d="M208 709q26 0 43 -20t17 -49q0 -70 -44.5 -126.5t-107.5 -87.5q-2 -1 -5 -1q-13 0 -13 15q0 7 13 16q40 24 66 52q24 27 24 67q0 18 -14 44q-15 27 -15 40q0 16 11.5 33t24.5 17z" />
<glyph unicode="&#x201a;" horiz-adv-x="228" d="M65 49q0 19 12.5 34t27.5 15t29 -10.5t19 -23.5q7 -17 7 -42q0 -21 -11 -56q-35 -99 -141 -151q-4 -2 -5 -2q-13 0 -13 16q0 7 14 16q40 24 66 52q24 25 24 66q0 17 -14 45q-15 27 -15 41z" />
<glyph unicode="&#x201c;" horiz-adv-x="382" d="M309 424q-26 0 -43 20.5t-17 49.5q0 69 44.5 125.5t107.5 87.5q2 1 5 1q13 0 13 -15q0 -7 -14 -16q-29 -18 -45 -30.5t-30.5 -36t-14.5 -51.5q0 -18 15 -45q14 -28 14 -41q0 -15 -11 -32t-24 -17zM108 424q-26 0 -42.5 20.5t-16.5 49.5q0 69 44.5 125.5t107.5 87.5 q2 1 5 1q13 0 13 -15q0 -7 -14 -16q-29 -18 -45 -30.5t-30.5 -36t-14.5 -51.5q0 -18 15 -45q14 -28 14 -41q0 -16 -11 -32.5t-25 -16.5z" />
<glyph unicode="&#x201d;" horiz-adv-x="394" d="M408 709q26 0 43 -20t17 -49q0 -70 -44.5 -126.5t-107.5 -87.5q-2 -1 -5 -1q-13 0 -13 15q0 7 14 16q40 24 66 52q23 28 23 67q0 18 -14 44q-14 28 -14 40q0 16 11 33t24 17zM208 709q26 0 43 -20t17 -49q0 -70 -44.5 -126.5t-107.5 -87.5q-2 -1 -5 -1q-13 0 -13 15 q0 7 13 16q40 24 66 52q24 27 24 67q0 18 -14 44q-15 27 -15 40q0 16 11.5 33t24.5 17z" />
<glyph unicode="&#x201e;" horiz-adv-x="428" d="M265 49q0 19 12.5 34t27.5 15t29.5 -10.5t19.5 -23.5q6 -18 6 -42q0 -21 -11 -56q-35 -99 -141 -151q-2 -2 -4 -2q-13 0 -14 16q0 7 14 16q40 24 66 52q24 25 24 66q0 17 -14 45q-15 27 -15 41zM65 49q0 19 12.5 34t27.5 15t29 -10.5t19 -23.5q7 -17 7 -42q0 -21 -11 -56 q-35 -99 -141 -151q-4 -2 -5 -2q-13 0 -13 16q0 7 14 16q40 24 66 52q24 25 24 66q0 17 -14 45q-15 27 -15 41z" />
<glyph unicode="&#x2022;" horiz-adv-x="347" d="M112 380q0 49 35.5 85t84.5 36t85 -36t36 -85t-35.5 -84t-85.5 -35q-49 0 -84.5 35t-35.5 84z" />
<glyph unicode="&#x2026;" horiz-adv-x="1106" d="M1004 55q0 -24 -14 -46t-33 -22q-24 0 -35 17q-9 16 -9 32q0 20 14 40.5t31 20.5q46 0 46 -42zM638 55q0 -23 -14 -45.5t-33 -22.5q-24 0 -35 17q-9 16 -9 32q0 20 14 40.5t31 20.5q46 0 46 -42zM181 36q0 20 14 40.5t31 20.5q21 0 33.5 -12t12.5 -33q0 -22 -14.5 -43.5 t-33.5 -21.5q-25 0 -34 17t-9 32z" />
<glyph unicode="&#x202f;" horiz-adv-x="193" />
<glyph unicode="&#x2039;" horiz-adv-x="288" d="M293 453l-136 -183l61 -183h-24l-106 183l182 183h23z" />
<glyph unicode="&#x203a;" horiz-adv-x="305" d="M161 453l106 -183l-182 -183h-24l137 183l-60 183h23z" />
<glyph unicode="&#x205f;" horiz-adv-x="242" />
<glyph unicode="&#x20ac;" horiz-adv-x="615" d="M609 480q0 1 -2 10.5t-2 10.5q-26 140 -133 141q-93 0 -160 -65t-95 -157h270q11 0 11 -9v-3l-8 -18q-4 -12 -15 -12h-269q-12 -44 -18 -90h246q10 0 10 -10q0 -5 -7 -18q-6 -14 -17 -14h-236q1 -163 80 -209q29 -17 63 -17h4q66 0 115 40q47 39 98 111q2 3 5 3h5 q4 -1 2.5 -6.5t-4.5 -9.5l-81 -141q-1 -3 -5 -3q-9 4 -18 4q-11 0 -26 -6q-15 -4 -51 -15q-33 -10 -76 -10q-41 0 -78 18q-114 54 -114 241h-62q-11 0 -12 9q0 2 0.5 4t1.5 5t2 7q3 17 16 17h58q5 40 21 90h-60q-11 0 -11 9l4 16q3 17 16 17h67q44 104 131 178.5t198 74.5 q50 0 125 -30q27 -12 31 -12l23 3q3 0 3 -2q0 -4 -4 -21q-3 -11 -10.5 -49t-11.5 -54q-1 -4 -2 -9.5t-1 -7.5t-1 -5t-1.5 -4t-1.5 -2t-3 -1.5t-4 -0.5q-4 0 -6 2z" />
<glyph unicode="&#x2122;" horiz-adv-x="1070" d="M548 303q2 -10 17.5 -17t35.5 -7q5 0 5 -3v-7q0 -2 -1 -2h-152q-2 0 -2 2v7q0 1 11 3q27 0 41 20q7 10 9 49q1 25 5 75q13 146 13 214v10q0 13 -15 21q-16 8 -21 8q-7 0 -7 3v7q0 2 0.5 2.5t1.5 -0.5h94q5 0 10 -6q61 -126 109 -225q46 -96 49 -96l158 315q9 12 13 12h94 q3 0 3 -2v-7q0 -3 -2 -3q-12 0 -27 -7q-18 -7 -18 -25l18 -330q1 -15 18 -25t38 -10q10 0 10 -3v-7q0 -2 -4 -2h-184q-3 0 -3 2v7q0 3 3 3q58 0 58 26q-9 169 -13 240q-2 40 -6 47l-164 -327q-2 -2 -7 -2q-7 0 -7 2l-164 332l-17 -282v-12zM172 654q0 7 -8 8h-1.5h-1.5h-82 q-42 -7 -51 -60q-3 -8 -5 -8h-6q-2 0 -2 1v9l13 84h378q5 0 14 -84v-9q0 -1 -2 -1h-7q-3 0 -6 15q-7 24 -17.5 37t-32.5 16h-82q-9 -4 -10 -8v-337q0 -31 69 -39h21q4 0 2 -2v-6q0 -1 -2 -3h-271q-3 0 -3 3v6q0 2 3 2h21q69 8 69 39v337z" />
<glyph unicode="&#x25fc;" horiz-adv-x="440" d="M0 440h440v-440h-440v440z" />
</font>
</defs>
</svg>
